<svg id="visual" viewBox="0 0 900 600" width="900" height="600" xmlns="http://www.w3.org/2000/svg" xmlns:xlink="http://www.w3.org/1999/xlink" version="1.1"><path d="M0 61L13.7 58C27.3 55 54.7 49 82 53C109.3 57 136.7 71 163.8 76C191 81 218 77 245.2 72C272.3 67 299.7 61 327 66C354.3 71 381.7 87 409 90C436.3 93 463.7 83 491 83C518.3 83 545.7 93 573 93C600.3 93 627.7 83 654.8 81C682 79 709 85 736.2 89C763.3 93 790.7 95 818 86C845.3 77 872.7 57 886.3 47L900 37L900 0L886.3 0C872.7 0 845.3 0 818 0C790.7 0 763.3 0 736.2 0C709 0 682 0 654.8 0C627.7 0 600.3 0 573 0C545.7 0 518.3 0 491 0C463.7 0 436.3 0 409 0C381.7 0 354.3 0 327 0C299.7 0 272.3 0 245.2 0C218 0 191 0 163.8 0C136.7 0 109.3 0 82 0C54.7 0 27.3 0 13.7 0L0 0Z" fill="#6198ff"></path><path d="M0 193L13.7 196C27.3 199 54.7 205 82 220C109.3 235 136.7 259 163.8 263C191 267 218 251 245.2 227C272.3 203 299.7 171 327 184C354.3 197 381.7 255 409 259C436.3 263 463.7 213 491 217C518.3 221 545.7 279 573 280C600.3 281 627.7 225 654.8 218C682 211 709 253 736.2 272C763.3 291 790.7 287 818 276C845.3 265 872.7 247 886.3 238L900 229L900 35L886.3 45C872.7 55 845.3 75 818 84C790.7 93 763.3 91 736.2 87C709 83 682 77 654.8 79C627.7 81 600.3 91 573 91C545.7 91 518.3 81 491 81C463.7 81 436.3 91 409 88C381.7 85 354.3 69 327 64C299.7 59 272.3 65 245.2 70C218 75 191 79 163.8 74C136.7 69 109.3 55 82 51C54.7 47 27.3 53 13.7 56L0 59Z" fill="#3c80ff"></path><path d="M0 241L13.7 249C27.3 257 54.7 273 82 298C109.3 323 136.7 357 163.8 367C191 377 218 363 245.2 337C272.3 311 299.7 273 327 273C354.3 273 381.7 311 409 306C436.3 301 463.7 253 491 268C518.3 283 545.7 361 573 374C600.3 387 627.7 335 654.8 326C682 317 709 351 736.2 366C763.3 381 790.7 377 818 362C845.3 347 872.7 321 886.3 308L900 295L900 227L886.3 236C872.7 245 845.3 263 818 274C790.7 285 763.3 289 736.2 270C709 251 682 209 654.8 216C627.7 223 600.3 279 573 278C545.7 277 518.3 219 491 215C463.7 211 436.3 261 409 257C381.7 253 354.3 195 327 182C299.7 169 272.3 201 245.2 225C218 249 191 265 163.8 261C136.7 257 109.3 233 82 218C54.7 203 27.3 197 13.7 194L0 191Z" fill="#0066ff"></path><path d="M0 493L13.7 483C27.3 473 54.7 453 82 459C109.3 465 136.7 497 163.8 505C191 513 218 497 245.2 482C272.3 467 299.7 453 327 447C354.3 441 381.7 443 409 451C436.3 459 463.7 473 491 487C518.3 501 545.7 515 573 519C600.3 523 627.7 517 654.8 514C682 511 709 511 736.2 517C763.3 523 790.7 535 818 527C845.3 519 872.7 491 886.3 477L900 463L900 293L886.3 306C872.7 319 845.3 345 818 360C790.7 375 763.3 379 736.2 364C709 349 682 315 654.8 324C627.7 333 600.3 385 573 372C545.7 359 518.3 281 491 266C463.7 251 436.3 299 409 304C381.7 309 354.3 271 327 271C299.7 271 272.3 309 245.2 335C218 361 191 375 163.8 365C136.7 355 109.3 321 82 296C54.7 271 27.3 255 13.7 247L0 239Z" fill="#0059dd"></path><path d="M0 601L13.7 601C27.3 601 54.7 601 82 601C109.3 601 136.7 601 163.8 601C191 601 218 601 245.2 601C272.3 601 299.7 601 327 601C354.3 601 381.7 601 409 601C436.3 601 463.7 601 491 601C518.3 601 545.7 601 573 601C600.3 601 627.7 601 654.8 601C682 601 709 601 736.2 601C763.3 601 790.7 601 818 601C845.3 601 872.7 601 886.3 601L900 601L900 461L886.3 475C872.7 489 845.3 517 818 525C790.7 533 763.3 521 736.2 515C709 509 682 509 654.8 512C627.7 515 600.3 521 573 517C545.7 513 518.3 499 491 485C463.7 471 436.3 457 409 449C381.7 441 354.3 439 327 445C299.7 451 272.3 465 245.2 480C218 495 191 511 163.8 503C136.7 495 109.3 463 82 457C54.7 451 27.3 471 13.7 481L0 491Z" fill="#004cbb"></path></svg>