<svg id="visual" viewBox="0 0 2000 500" width="2000" height="500" xmlns="http://www.w3.org/2000/svg" xmlns:xlink="http://www.w3.org/1999/xlink" version="1.1"><path d="M0 158L47.7 162.5C95.3 167 190.7 176 285.8 171.2C381 166.3 476 147.7 571.2 144.8C666.3 142 761.7 155 857 159.5C952.3 164 1047.7 160 1143 160.5C1238.3 161 1333.7 166 1428.8 172.3C1524 178.7 1619 186.3 1714.2 187.3C1809.3 188.3 1904.7 182.7 1952.3 179.8L2000 177L2000 0L1952.3 0C1904.7 0 1809.3 0 1714.2 0C1619 0 1524 0 1428.8 0C1333.7 0 1238.3 0 1143 0C1047.7 0 952.3 0 857 0C761.7 0 666.3 0 571.2 0C476 0 381 0 285.8 0C190.7 0 95.3 0 47.7 0L0 0Z" fill="#009473"></path><path d="M0 161L47.7 151.8C95.3 142.7 190.7 124.3 285.8 117C381 109.7 476 113.3 571.2 114.7C666.3 116 761.7 115 857 116.3C952.3 117.7 1047.7 121.3 1143 124.3C1238.3 127.3 1333.7 129.7 1428.8 133.2C1524 136.7 1619 141.3 1714.2 143C1809.3 144.7 1904.7 143.3 1952.3 142.7L2000 142L2000 0L1952.3 0C1904.7 0 1809.3 0 1714.2 0C1619 0 1524 0 1428.8 0C1333.7 0 1238.3 0 1143 0C1047.7 0 952.3 0 857 0C761.7 0 666.3 0 571.2 0C476 0 381 0 285.8 0C190.7 0 95.3 0 47.7 0L0 0Z" fill="#00a26d"></path><path d="M0 76L47.7 82.7C95.3 89.3 190.7 102.7 285.8 104.8C381 107 476 98 571.2 92.5C666.3 87 761.7 85 857 91.5C952.3 98 1047.7 113 1143 112.8C1238.3 112.7 1333.7 97.3 1428.8 89.5C1524 81.7 1619 81.3 1714.2 85C1809.3 88.7 1904.7 96.3 1952.3 100.2L2000 104L2000 0L1952.3 0C1904.7 0 1809.3 0 1714.2 0C1619 0 1524 0 1428.8 0C1333.7 0 1238.3 0 1143 0C1047.7 0 952.3 0 857 0C761.7 0 666.3 0 571.2 0C476 0 381 0 285.8 0C190.7 0 95.3 0 47.7 0L0 0Z" fill="#00af63"></path><path d="M0 69L47.7 73.3C95.3 77.7 190.7 86.3 285.8 85.7C381 85 476 75 571.2 70.7C666.3 66.3 761.7 67.7 857 72.2C952.3 76.7 1047.7 84.3 1143 81.8C1238.3 79.3 1333.7 66.7 1428.8 67.5C1524 68.3 1619 82.7 1714.2 85.5C1809.3 88.3 1904.7 79.7 1952.3 75.3L2000 71L2000 0L1952.3 0C1904.7 0 1809.3 0 1714.2 0C1619 0 1524 0 1428.8 0C1333.7 0 1238.3 0 1143 0C1047.7 0 952.3 0 857 0C761.7 0 666.3 0 571.2 0C476 0 381 0 285.8 0C190.7 0 95.3 0 47.7 0L0 0Z" fill="#06bb54"></path><path d="M0 35L47.7 33C95.3 31 190.7 27 285.8 27.8C381 28.7 476 34.3 571.2 35.2C666.3 36 761.7 32 857 28.7C952.3 25.3 1047.7 22.7 1143 25.7C1238.3 28.7 1333.7 37.3 1428.8 39C1524 40.7 1619 35.3 1714.2 32.8C1809.3 30.3 1904.7 30.7 1952.3 30.8L2000 31L2000 0L1952.3 0C1904.7 0 1809.3 0 1714.2 0C1619 0 1524 0 1428.8 0C1333.7 0 1238.3 0 1143 0C1047.7 0 952.3 0 857 0C761.7 0 666.3 0 571.2 0C476 0 381 0 285.8 0C190.7 0 95.3 0 47.7 0L0 0Z" fill="#24c73d"></path></svg>