<svg id="visual" viewBox="0 0 1000 600" width="1000" height="600" xmlns="http://www.w3.org/2000/svg" xmlns:xlink="http://www.w3.org/1999/xlink" version="1.1"><rect x="0" y="0" width="1000" height="600" fill="#ffffff"></rect><path d="M0 229L20.8 225.3C41.7 221.7 83.3 214.3 125 213C166.7 211.7 208.3 216.3 250 221.3C291.7 226.3 333.3 231.7 375 232C416.7 232.3 458.3 227.7 500 217C541.7 206.3 583.3 189.7 625 186.2C666.7 182.7 708.3 192.3 750 192C791.7 191.7 833.3 181.3 875 184.3C916.7 187.3 958.3 203.7 979.2 211.8L1000 220L1000 0L979.2 0C958.3 0 916.7 0 875 0C833.3 0 791.7 0 750 0C708.3 0 666.7 0 625 0C583.3 0 541.7 0 500 0C458.3 0 416.7 0 375 0C333.3 0 291.7 0 250 0C208.3 0 166.7 0 125 0C83.3 0 41.7 0 20.8 0L0 0Z" fill="#4facf7"></path><path d="M0 195L20.8 191.8C41.7 188.7 83.3 182.3 125 175C166.7 167.7 208.3 159.3 250 158C291.7 156.7 333.3 162.3 375 165.3C416.7 168.3 458.3 168.7 500 168.3C541.7 168 583.3 167 625 169.8C666.7 172.7 708.3 179.3 750 184.2C791.7 189 833.3 192 875 184.5C916.7 177 958.3 159 979.2 150L1000 141L1000 0L979.2 0C958.3 0 916.7 0 875 0C833.3 0 791.7 0 750 0C708.3 0 666.7 0 625 0C583.3 0 541.7 0 500 0C458.3 0 416.7 0 375 0C333.3 0 291.7 0 250 0C208.3 0 166.7 0 125 0C83.3 0 41.7 0 20.8 0L0 0Z" fill="#3fa0fb"></path><path d="M0 126L20.8 124.2C41.7 122.3 83.3 118.7 125 119C166.7 119.3 208.3 123.7 250 123.5C291.7 123.3 333.3 118.7 375 121.7C416.7 124.7 458.3 135.3 500 142.2C541.7 149 583.3 152 625 146.5C666.7 141 708.3 127 750 124C791.7 121 833.3 129 875 131.8C916.7 134.7 958.3 132.3 979.2 131.2L1000 130L1000 0L979.2 0C958.3 0 916.7 0 875 0C833.3 0 791.7 0 750 0C708.3 0 666.7 0 625 0C583.3 0 541.7 0 500 0C458.3 0 416.7 0 375 0C333.3 0 291.7 0 250 0C208.3 0 166.7 0 125 0C83.3 0 41.7 0 20.8 0L0 0Z" fill="#3c92fe"></path><path d="M0 124L20.8 119.5C41.7 115 83.3 106 125 99.3C166.7 92.7 208.3 88.3 250 93.3C291.7 98.3 333.3 112.7 375 119.5C416.7 126.3 458.3 125.7 500 126.3C541.7 127 583.3 129 625 124.3C666.7 119.7 708.3 108.3 750 106.2C791.7 104 833.3 111 875 113C916.7 115 958.3 112 979.2 110.5L1000 109L1000 0L979.2 0C958.3 0 916.7 0 875 0C833.3 0 791.7 0 750 0C708.3 0 666.7 0 625 0C583.3 0 541.7 0 500 0C458.3 0 416.7 0 375 0C333.3 0 291.7 0 250 0C208.3 0 166.7 0 125 0C83.3 0 41.7 0 20.8 0L0 0Z" fill="#4783fd"></path><path d="M0 86L20.8 86.5C41.7 87 83.3 88 125 86.2C166.7 84.3 208.3 79.7 250 79.8C291.7 80 333.3 85 375 83.5C416.7 82 458.3 74 500 71.3C541.7 68.7 583.3 71.3 625 71.5C666.7 71.7 708.3 69.3 750 65.8C791.7 62.3 833.3 57.7 875 58.7C916.7 59.7 958.3 66.3 979.2 69.7L1000 73L1000 0L979.2 0C958.3 0 916.7 0 875 0C833.3 0 791.7 0 750 0C708.3 0 666.7 0 625 0C583.3 0 541.7 0 500 0C458.3 0 416.7 0 375 0C333.3 0 291.7 0 250 0C208.3 0 166.7 0 125 0C83.3 0 41.7 0 20.8 0L0 0Z" fill="#5b72fa"></path><path d="M0 25L20.8 25.8C41.7 26.7 83.3 28.3 125 29.2C166.7 30 208.3 30 250 31C291.7 32 333.3 34 375 38.3C416.7 42.7 458.3 49.3 500 50.2C541.7 51 583.3 46 625 42.3C666.7 38.7 708.3 36.3 750 37.2C791.7 38 833.3 42 875 42.7C916.7 43.3 958.3 40.7 979.2 39.3L1000 38L1000 0L979.2 0C958.3 0 916.7 0 875 0C833.3 0 791.7 0 750 0C708.3 0 666.7 0 625 0C583.3 0 541.7 0 500 0C458.3 0 416.7 0 375 0C333.3 0 291.7 0 250 0C208.3 0 166.7 0 125 0C83.3 0 41.7 0 20.8 0L0 0Z" fill="#715df2"></path></svg>