<svg id="visual" viewBox="0 0 2000 400" width="2000" height="400" xmlns="http://www.w3.org/2000/svg" xmlns:xlink="http://www.w3.org/1999/xlink" version="1.1"><path d="M0 288L47.7 282.8C95.3 277.7 190.7 267.3 285.8 260.7C381 254 476 251 571.2 257.5C666.3 264 761.7 280 857 282.5C952.3 285 1047.7 274 1143 263.8C1238.3 253.7 1333.7 244.3 1428.8 243.8C1524 243.3 1619 251.7 1714.2 255.8C1809.3 260 1904.7 260 1952.3 260L2000 260L2000 401L1952.3 401C1904.7 401 1809.3 401 1714.2 401C1619 401 1524 401 1428.8 401C1333.7 401 1238.3 401 1143 401C1047.7 401 952.3 401 857 401C761.7 401 666.3 401 571.2 401C476 401 381 401 285.8 401C190.7 401 95.3 401 47.7 401L0 401Z" fill="#4facf7"></path><path d="M0 275L47.7 273.8C95.3 272.7 190.7 270.3 285.8 269C381 267.7 476 267.3 571.2 274.3C666.3 281.3 761.7 295.7 857 298.7C952.3 301.7 1047.7 293.3 1143 292.3C1238.3 291.3 1333.7 297.7 1428.8 294.5C1524 291.3 1619 278.7 1714.2 276.5C1809.3 274.3 1904.7 282.7 1952.3 286.8L2000 291L2000 401L1952.3 401C1904.7 401 1809.3 401 1714.2 401C1619 401 1524 401 1428.8 401C1333.7 401 1238.3 401 1143 401C1047.7 401 952.3 401 857 401C761.7 401 666.3 401 571.2 401C476 401 381 401 285.8 401C190.7 401 95.3 401 47.7 401L0 401Z" fill="#2b9dfc"></path><path d="M0 318L47.7 317C95.3 316 190.7 314 285.8 312C381 310 476 308 571.2 308.3C666.3 308.7 761.7 311.3 857 315.7C952.3 320 1047.7 326 1143 322.8C1238.3 319.7 1333.7 307.3 1428.8 305.2C1524 303 1619 311 1714.2 311.8C1809.3 312.7 1904.7 306.3 1952.3 303.2L2000 300L2000 401L1952.3 401C1904.7 401 1809.3 401 1714.2 401C1619 401 1524 401 1428.8 401C1333.7 401 1238.3 401 1143 401C1047.7 401 952.3 401 857 401C761.7 401 666.3 401 571.2 401C476 401 381 401 285.8 401C190.7 401 95.3 401 47.7 401L0 401Z" fill="#008cff"></path><path d="M0 325L47.7 328.2C95.3 331.3 190.7 337.7 285.8 343C381 348.3 476 352.7 571.2 350.2C666.3 347.7 761.7 338.3 857 338C952.3 337.7 1047.7 346.3 1143 348C1238.3 349.7 1333.7 344.3 1428.8 340.2C1524 336 1619 333 1714.2 334.7C1809.3 336.3 1904.7 342.7 1952.3 345.8L2000 349L2000 401L1952.3 401C1904.7 401 1809.3 401 1714.2 401C1619 401 1524 401 1428.8 401C1333.7 401 1238.3 401 1143 401C1047.7 401 952.3 401 857 401C761.7 401 666.3 401 571.2 401C476 401 381 401 285.8 401C190.7 401 95.3 401 47.7 401L0 401Z" fill="#007aff"></path><path d="M0 354L47.7 358.7C95.3 363.3 190.7 372.7 285.8 375.7C381 378.7 476 375.3 571.2 373.2C666.3 371 761.7 370 857 366.8C952.3 363.7 1047.7 358.3 1143 358.5C1238.3 358.7 1333.7 364.3 1428.8 368.7C1524 373 1619 376 1714.2 376.3C1809.3 376.7 1904.7 374.3 1952.3 373.2L2000 372L2000 401L1952.3 401C1904.7 401 1809.3 401 1714.2 401C1619 401 1524 401 1428.8 401C1333.7 401 1238.3 401 1143 401C1047.7 401 952.3 401 857 401C761.7 401 666.3 401 571.2 401C476 401 381 401 285.8 401C190.7 401 95.3 401 47.7 401L0 401Z" fill="#0066ff"></path></svg>