<svg id="visual" viewBox="0 0 320 380" width="320" height="380" xmlns="http://www.w3.org/2000/svg" xmlns:xlink="http://www.w3.org/1999/xlink" version="1.1"><path d="M0 81L4.8 74.7C9.7 68.3 19.3 55.7 29 56.3C38.7 57 48.3 71 58 81.7C67.7 92.3 77.3 99.7 87 97.7C96.7 95.7 106.3 84.3 116 86.3C125.7 88.3 135.3 103.7 145.2 103C155 102.3 165 85.7 174.8 75.5C184.7 65.3 194.3 61.7 204 73.8C213.7 86 223.3 114 233 119.7C242.7 125.3 252.3 108.7 262 106.7C271.7 104.7 281.3 117.3 291 125C300.7 132.7 310.3 135.3 315.2 136.7L320 138L320 0L315.2 0C310.3 0 300.7 0 291 0C281.3 0 271.7 0 262 0C252.3 0 242.7 0 233 0C223.3 0 213.7 0 204 0C194.3 0 184.7 0 174.8 0C165 0 155 0 145.2 0C135.3 0 125.7 0 116 0C106.3 0 96.7 0 87 0C77.3 0 67.7 0 58 0C48.3 0 38.7 0 29 0C19.3 0 9.7 0 4.8 0L0 0Z" fill="#a067ff"></path><path d="M0 149L4.8 143.3C9.7 137.7 19.3 126.3 29 127C38.7 127.7 48.3 140.3 58 147.3C67.7 154.3 77.3 155.7 87 152.5C96.7 149.3 106.3 141.7 116 141.7C125.7 141.7 135.3 149.3 145.2 150C155 150.7 165 144.3 174.8 134.2C184.7 124 194.3 110 204 118.2C213.7 126.3 223.3 156.7 233 164.8C242.7 173 252.3 159 262 159.7C271.7 160.3 281.3 175.7 291 181.5C300.7 187.3 310.3 183.7 315.2 181.8L320 180L320 136L315.2 134.7C310.3 133.3 300.7 130.7 291 123C281.3 115.3 271.7 102.7 262 104.7C252.3 106.7 242.7 123.3 233 117.7C223.3 112 213.7 84 204 71.8C194.3 59.7 184.7 63.3 174.8 73.5C165 83.7 155 100.3 145.2 101C135.3 101.7 125.7 86.3 116 84.3C106.3 82.3 96.7 93.7 87 95.7C77.3 97.7 67.7 90.3 58 79.7C48.3 69 38.7 55 29 54.3C19.3 53.7 9.7 66.3 4.8 72.7L0 79Z" fill="#8642ff"></path><path d="M0 191L4.8 186.5C9.7 182 19.3 173 29 173C38.7 173 48.3 182 58 189C67.7 196 77.3 201 87 197.8C96.7 194.7 106.3 183.3 116 179.5C125.7 175.7 135.3 179.3 145.2 178.7C155 178 165 173 174.8 166.7C184.7 160.3 194.3 152.7 204 160.3C213.7 168 223.3 191 233 197.3C242.7 203.7 252.3 193.3 262 197.7C271.7 202 281.3 221 291 224.8C300.7 228.7 310.3 217.3 315.2 211.7L320 206L320 178L315.2 179.8C310.3 181.7 300.7 185.3 291 179.5C281.3 173.7 271.7 158.3 262 157.7C252.3 157 242.7 171 233 162.8C223.3 154.7 213.7 124.3 204 116.2C194.3 108 184.7 122 174.8 132.2C165 142.3 155 148.7 145.2 148C135.3 147.3 125.7 139.7 116 139.7C106.3 139.7 96.7 147.3 87 150.5C77.3 153.7 67.7 152.3 58 145.3C48.3 138.3 38.7 125.7 29 125C19.3 124.3 9.7 135.7 4.8 141.3L0 147Z" fill="#6600ff"></path><path d="M0 240L4.8 241.3C9.7 242.7 19.3 245.3 29 248.5C38.7 251.7 48.3 255.3 58 257.8C67.7 260.3 77.3 261.7 87 259.2C96.7 256.7 106.3 250.3 116 243.3C125.7 236.3 135.3 228.7 145.2 223.7C155 218.7 165 216.3 174.8 217C184.7 217.7 194.3 221.3 204 236.5C213.7 251.7 223.3 278.3 233 282.2C242.7 286 252.3 267 262 263.8C271.7 260.7 281.3 273.3 291 279.7C300.7 286 310.3 286 315.2 286L320 286L320 204L315.2 209.7C310.3 215.3 300.7 226.7 291 222.8C281.3 219 271.7 200 262 195.7C252.3 191.3 242.7 201.7 233 195.3C223.3 189 213.7 166 204 158.3C194.3 150.7 184.7 158.3 174.8 164.7C165 171 155 176 145.2 176.7C135.3 177.3 125.7 173.7 116 177.5C106.3 181.3 96.7 192.7 87 195.8C77.3 199 67.7 194 58 187C48.3 180 38.7 171 29 171C19.3 171 9.7 180 4.8 184.5L0 189Z" fill="#5802dc"></path><path d="M0 381L4.8 381C9.7 381 19.3 381 29 381C38.7 381 48.3 381 58 381C67.7 381 77.3 381 87 381C96.7 381 106.3 381 116 381C125.7 381 135.3 381 145.2 381C155 381 165 381 174.8 381C184.7 381 194.3 381 204 381C213.7 381 223.3 381 233 381C242.7 381 252.3 381 262 381C271.7 381 281.3 381 291 381C300.7 381 310.3 381 315.2 381L320 381L320 284L315.2 284C310.3 284 300.7 284 291 277.7C281.3 271.3 271.7 258.7 262 261.8C252.3 265 242.7 284 233 280.2C223.3 276.3 213.7 249.7 204 234.5C194.3 219.3 184.7 215.7 174.8 215C165 214.3 155 216.7 145.2 221.7C135.3 226.7 125.7 234.3 116 241.3C106.3 248.3 96.7 254.7 87 257.2C77.3 259.7 67.7 258.3 58 255.8C48.3 253.3 38.7 249.7 29 246.5C19.3 243.3 9.7 240.7 4.8 239.3L0 238Z" fill="#4b03ba"></path></svg>