<svg id="visual" viewBox="0 0 320 380" width="320" height="380" xmlns="http://www.w3.org/2000/svg" xmlns:xlink="http://www.w3.org/1999/xlink" version="1.1"><path d="M0 157L4.8 155.7C9.7 154.3 19.3 151.7 29 154.8C38.7 158 48.3 167 58 155C67.7 143 77.3 110 87 96C96.7 82 106.3 87 116 99.7C125.7 112.3 135.3 132.7 145.2 136.5C155 140.3 165 127.7 174.8 123.2C184.7 118.7 194.3 122.3 204 121C213.7 119.7 223.3 113.3 233 105.8C242.7 98.3 252.3 89.7 262 81.5C271.7 73.3 281.3 65.7 291 75.8C300.7 86 310.3 114 315.2 128L320 142L320 0L315.2 0C310.3 0 300.7 0 291 0C281.3 0 271.7 0 262 0C252.3 0 242.7 0 233 0C223.3 0 213.7 0 204 0C194.3 0 184.7 0 174.8 0C165 0 155 0 145.2 0C135.3 0 125.7 0 116 0C106.3 0 96.7 0 87 0C77.3 0 67.7 0 58 0C48.3 0 38.7 0 29 0C19.3 0 9.7 0 4.8 0L0 0Z" fill="#ff749e"></path><path d="M0 210L4.8 211.8C9.7 213.7 19.3 217.3 29 217.3C38.7 217.3 48.3 213.7 58 199.2C67.7 184.7 77.3 159.3 87 146.7C96.7 134 106.3 134 116 150.5C125.7 167 135.3 200 145.2 202.5C155 205 165 177 174.8 173.8C184.7 170.7 194.3 192.3 204 193.7C213.7 195 223.3 176 233 168.3C242.7 160.7 252.3 164.3 262 158C271.7 151.7 281.3 135.3 291 143.7C300.7 152 310.3 185 315.2 201.5L320 218L320 140L315.2 126C310.3 112 300.7 84 291 73.8C281.3 63.7 271.7 71.3 262 79.5C252.3 87.7 242.7 96.3 233 103.8C223.3 111.3 213.7 117.7 204 119C194.3 120.3 184.7 116.7 174.8 121.2C165 125.7 155 138.3 145.2 134.5C135.3 130.7 125.7 110.3 116 97.7C106.3 85 96.7 80 87 94C77.3 108 67.7 141 58 153C48.3 165 38.7 156 29 152.8C19.3 149.7 9.7 152.3 4.8 153.7L0 155Z" fill="#ff4e83"></path><path d="M0 256L4.8 257.2C9.7 258.3 19.3 260.7 29 258C38.7 255.3 48.3 247.7 58 237C67.7 226.3 77.3 212.7 87 208.3C96.7 204 106.3 209 116 222.2C125.7 235.3 135.3 256.7 145.2 255.3C155 254 165 230 174.8 223.2C184.7 216.3 194.3 226.7 204 224.2C213.7 221.7 223.3 206.3 233 204.3C242.7 202.3 252.3 213.7 262 211.2C271.7 208.7 281.3 192.3 291 201.8C300.7 211.3 310.3 246.7 315.2 264.3L320 282L320 216L315.2 199.5C310.3 183 300.7 150 291 141.7C281.3 133.3 271.7 149.7 262 156C252.3 162.3 242.7 158.7 233 166.3C223.3 174 213.7 193 204 191.7C194.3 190.3 184.7 168.7 174.8 171.8C165 175 155 203 145.2 200.5C135.3 198 125.7 165 116 148.5C106.3 132 96.7 132 87 144.7C77.3 157.3 67.7 182.7 58 197.2C48.3 211.7 38.7 215.3 29 215.3C19.3 215.3 9.7 211.7 4.8 209.8L0 208Z" fill="#ff0066"></path><path d="M0 320L4.8 322.5C9.7 325 19.3 330 29 332C38.7 334 48.3 333 58 334.3C67.7 335.7 77.3 339.3 87 340.5C96.7 341.7 106.3 340.3 116 340.3C125.7 340.3 135.3 341.7 145.2 343C155 344.3 165 345.7 174.8 341.2C184.7 336.7 194.3 326.3 204 327.5C213.7 328.7 223.3 341.3 233 348.3C242.7 355.3 252.3 356.7 262 351.7C271.7 346.7 281.3 335.3 291 331.5C300.7 327.7 310.3 331.3 315.2 333.2L320 335L320 280L315.2 262.3C310.3 244.7 300.7 209.3 291 199.8C281.3 190.3 271.7 206.7 262 209.2C252.3 211.7 242.7 200.3 233 202.3C223.3 204.3 213.7 219.7 204 222.2C194.3 224.7 184.7 214.3 174.8 221.2C165 228 155 252 145.2 253.3C135.3 254.7 125.7 233.3 116 220.2C106.3 207 96.7 202 87 206.3C77.3 210.7 67.7 224.3 58 235C48.3 245.7 38.7 253.3 29 256C19.3 258.7 9.7 256.3 4.8 255.2L0 254Z" fill="#dd005a"></path><path d="M0 381L4.8 381C9.7 381 19.3 381 29 381C38.7 381 48.3 381 58 381C67.7 381 77.3 381 87 381C96.7 381 106.3 381 116 381C125.7 381 135.3 381 145.2 381C155 381 165 381 174.8 381C184.7 381 194.3 381 204 381C213.7 381 223.3 381 233 381C242.7 381 252.3 381 262 381C271.7 381 281.3 381 291 381C300.7 381 310.3 381 315.2 381L320 381L320 333L315.2 331.2C310.3 329.3 300.7 325.7 291 329.5C281.3 333.3 271.7 344.7 262 349.7C252.3 354.7 242.7 353.3 233 346.3C223.3 339.3 213.7 326.7 204 325.5C194.3 324.3 184.7 334.7 174.8 339.2C165 343.7 155 342.3 145.2 341C135.3 339.7 125.7 338.3 116 338.3C106.3 338.3 96.7 339.7 87 338.5C77.3 337.3 67.7 333.7 58 332.3C48.3 331 38.7 332 29 330C19.3 328 9.7 323 4.8 320.5L0 318Z" fill="#bb004d"></path></svg>