<svg id="visual" viewBox="0 0 320 380" width="320" height="380" xmlns="http://www.w3.org/2000/svg" xmlns:xlink="http://www.w3.org/1999/xlink" version="1.1"><path d="M0 62L4.8 66.3C9.7 70.7 19.3 79.3 29 79.3C38.7 79.3 48.3 70.7 58 63.2C67.7 55.7 77.3 49.3 87 53.7C96.7 58 106.3 73 116 74.2C125.7 75.3 135.3 62.7 145.2 55.2C155 47.7 165 45.3 174.8 46.7C184.7 48 194.3 53 204 56.2C213.7 59.3 223.3 60.7 233 66.3C242.7 72 252.3 82 262 83.2C271.7 84.3 281.3 76.7 291 67.8C300.7 59 310.3 49 315.2 44L320 39L320 0L315.2 0C310.3 0 300.7 0 291 0C281.3 0 271.7 0 262 0C252.3 0 242.7 0 233 0C223.3 0 213.7 0 204 0C194.3 0 184.7 0 174.8 0C165 0 155 0 145.2 0C135.3 0 125.7 0 116 0C106.3 0 96.7 0 87 0C77.3 0 67.7 0 58 0C48.3 0 38.7 0 29 0C19.3 0 9.7 0 4.8 0L0 0Z" fill="#36b796"></path><path d="M0 229L4.8 232.8C9.7 236.7 19.3 244.3 29 246.8C38.7 249.3 48.3 246.7 58 229.5C67.7 212.3 77.3 180.7 87 165.5C96.7 150.3 106.3 151.7 116 151C125.7 150.3 135.3 147.7 145.2 152.7C155 157.7 165 170.3 174.8 169.2C184.7 168 194.3 153 204 151.8C213.7 150.7 223.3 163.3 233 170.3C242.7 177.3 252.3 178.7 262 181.2C271.7 183.7 281.3 187.3 291 182.2C300.7 177 310.3 163 315.2 156L320 149L320 37L315.2 42C310.3 47 300.7 57 291 65.8C281.3 74.7 271.7 82.3 262 81.2C252.3 80 242.7 70 233 64.3C223.3 58.7 213.7 57.3 204 54.2C194.3 51 184.7 46 174.8 44.7C165 43.3 155 45.7 145.2 53.2C135.3 60.7 125.7 73.3 116 72.2C106.3 71 96.7 56 87 51.7C77.3 47.3 67.7 53.7 58 61.2C48.3 68.7 38.7 77.3 29 77.3C19.3 77.3 9.7 68.7 4.8 64.3L0 60Z" fill="#008a6b"></path><path d="M0 252L4.8 258.3C9.7 264.7 19.3 277.3 29 281.7C38.7 286 48.3 282 58 268C67.7 254 77.3 230 87 219.3C96.7 208.7 106.3 211.3 116 208.2C125.7 205 135.3 196 145.2 196C155 196 165 205 174.8 207C184.7 209 194.3 204 204 208.3C213.7 212.7 223.3 226.3 233 232.7C242.7 239 252.3 238 262 238.7C271.7 239.3 281.3 241.7 291 235.3C300.7 229 310.3 214 315.2 206.5L320 199L320 147L315.2 154C310.3 161 300.7 175 291 180.2C281.3 185.3 271.7 181.7 262 179.2C252.3 176.7 242.7 175.3 233 168.3C223.3 161.3 213.7 148.7 204 149.8C194.3 151 184.7 166 174.8 167.2C165 168.3 155 155.7 145.2 150.7C135.3 145.7 125.7 148.3 116 149C106.3 149.7 96.7 148.3 87 163.5C77.3 178.7 67.7 210.3 58 227.5C48.3 244.7 38.7 247.3 29 244.8C19.3 242.3 9.7 234.7 4.8 230.8L0 227Z" fill="#006c55"></path><path d="M0 309L4.8 316.5C9.7 324 19.3 339 29 343.3C38.7 347.7 48.3 341.3 58 335C67.7 328.7 77.3 322.3 87 323C96.7 323.7 106.3 331.3 116 331.3C125.7 331.3 135.3 323.7 145.2 316.7C155 309.7 165 303.3 174.8 304.7C184.7 306 194.3 315 204 320.8C213.7 326.7 223.3 329.3 233 331.8C242.7 334.3 252.3 336.7 262 335.3C271.7 334 281.3 329 291 323.3C300.7 317.7 310.3 311.3 315.2 308.2L320 305L320 197L315.2 204.5C310.3 212 300.7 227 291 233.3C281.3 239.7 271.7 237.3 262 236.7C252.3 236 242.7 237 233 230.7C223.3 224.3 213.7 210.7 204 206.3C194.3 202 184.7 207 174.8 205C165 203 155 194 145.2 194C135.3 194 125.7 203 116 206.2C106.3 209.3 96.7 206.7 87 217.3C77.3 228 67.7 252 58 266C48.3 280 38.7 284 29 279.7C19.3 275.3 9.7 262.7 4.8 256.3L0 250Z" fill="#008a6b"></path><path d="M0 381L4.8 381C9.7 381 19.3 381 29 381C38.7 381 48.3 381 58 381C67.7 381 77.3 381 87 381C96.7 381 106.3 381 116 381C125.7 381 135.3 381 145.2 381C155 381 165 381 174.8 381C184.7 381 194.3 381 204 381C213.7 381 223.3 381 233 381C242.7 381 252.3 381 262 381C271.7 381 281.3 381 291 381C300.7 381 310.3 381 315.2 381L320 381L320 303L315.2 306.2C310.3 309.3 300.7 315.7 291 321.3C281.3 327 271.7 332 262 333.3C252.3 334.7 242.7 332.3 233 329.8C223.3 327.3 213.7 324.7 204 318.8C194.3 313 184.7 304 174.8 302.7C165 301.3 155 307.7 145.2 314.7C135.3 321.7 125.7 329.3 116 329.3C106.3 329.3 96.7 321.7 87 321C77.3 320.3 67.7 326.7 58 333C48.3 339.3 38.7 345.7 29 341.3C19.3 337 9.7 322 4.8 314.5L0 307Z" fill="#36b796"></path></svg>