<svg id="visual" viewBox="0 0 320 380" width="320" height="380" xmlns="http://www.w3.org/2000/svg" xmlns:xlink="http://www.w3.org/1999/xlink" version="1.1"><path d="M0 73L4.8 68.7C9.7 64.3 19.3 55.7 29 51.3C38.7 47 48.3 47 58 45C67.7 43 77.3 39 87 35.8C96.7 32.7 106.3 30.3 116 36C125.7 41.7 135.3 55.3 145.2 55.3C155 55.3 165 41.7 174.8 41.7C184.7 41.7 194.3 55.3 204 59.7C213.7 64 223.3 59 233 56.5C242.7 54 252.3 54 262 54C271.7 54 281.3 54 291 54C300.7 54 310.3 54 315.2 54L320 54L320 0L315.2 0C310.3 0 300.7 0 291 0C281.3 0 271.7 0 262 0C252.3 0 242.7 0 233 0C223.3 0 213.7 0 204 0C194.3 0 184.7 0 174.8 0C165 0 155 0 145.2 0C135.3 0 125.7 0 116 0C106.3 0 96.7 0 87 0C77.3 0 67.7 0 58 0C48.3 0 38.7 0 29 0C19.3 0 9.7 0 4.8 0L0 0Z" fill="#d47799"></path><path d="M0 180L4.8 169.2C9.7 158.3 19.3 136.7 29 131.5C38.7 126.3 48.3 137.7 58 148.5C67.7 159.3 77.3 169.7 87 179.2C96.7 188.7 106.3 197.3 116 186.5C125.7 175.7 135.3 145.3 145.2 127C155 108.7 165 102.3 174.8 105.5C184.7 108.7 194.3 121.3 204 129.5C213.7 137.7 223.3 141.3 233 137.5C242.7 133.7 252.3 122.3 262 128.7C271.7 135 281.3 159 291 168.5C300.7 178 310.3 173 315.2 170.5L320 168L320 52L315.2 52C310.3 52 300.7 52 291 52C281.3 52 271.7 52 262 52C252.3 52 242.7 52 233 54.5C223.3 57 213.7 62 204 57.7C194.3 53.3 184.7 39.7 174.8 39.7C165 39.7 155 53.3 145.2 53.3C135.3 53.3 125.7 39.7 116 34C106.3 28.3 96.7 30.7 87 33.8C77.3 37 67.7 41 58 43C48.3 45 38.7 45 29 49.3C19.3 53.7 9.7 62.3 4.8 66.7L0 71Z" fill="#c95a84"></path><path d="M0 206L4.8 201C9.7 196 19.3 186 29 186C38.7 186 48.3 196 58 201.7C67.7 207.3 77.3 208.7 87 212.5C96.7 216.3 106.3 222.7 116 212.5C125.7 202.3 135.3 175.7 145.2 161.7C155 147.7 165 146.3 174.8 151.5C184.7 156.7 194.3 168.3 204 172.2C213.7 176 223.3 172 233 166.2C242.7 160.3 252.3 152.7 262 166C271.7 179.3 281.3 213.7 291 223.8C300.7 234 310.3 220 315.2 213L320 206L320 166L315.2 168.5C310.3 171 300.7 176 291 166.5C281.3 157 271.7 133 262 126.7C252.3 120.3 242.7 131.7 233 135.5C223.3 139.3 213.7 135.7 204 127.5C194.3 119.3 184.7 106.7 174.8 103.5C165 100.3 155 106.7 145.2 125C135.3 143.3 125.7 173.7 116 184.5C106.3 195.3 96.7 186.7 87 177.2C77.3 167.7 67.7 157.3 58 146.5C48.3 135.7 38.7 124.3 29 129.5C19.3 134.7 9.7 156.3 4.8 167.2L0 178Z" fill="#be396e"></path><path d="M0 267L4.8 264.5C9.7 262 19.3 257 29 258.8C38.7 260.7 48.3 269.3 58 268.7C67.7 268 77.3 258 87 262.5C96.7 267 106.3 286 116 285.3C125.7 284.7 135.3 264.3 145.2 247.2C155 230 165 216 174.8 220.5C184.7 225 194.3 248 204 260.2C213.7 272.3 223.3 273.7 233 262.2C242.7 250.7 252.3 226.3 262 233.2C271.7 240 281.3 278 291 285C300.7 292 310.3 268 315.2 256L320 244L320 204L315.2 211C310.3 218 300.7 232 291 221.8C281.3 211.7 271.7 177.3 262 164C252.3 150.7 242.7 158.3 233 164.2C223.3 170 213.7 174 204 170.2C194.3 166.3 184.7 154.7 174.8 149.5C165 144.3 155 145.7 145.2 159.7C135.3 173.7 125.7 200.3 116 210.5C106.3 220.7 96.7 214.3 87 210.5C77.3 206.7 67.7 205.3 58 199.7C48.3 194 38.7 184 29 184C19.3 184 9.7 194 4.8 199L0 204Z" fill="#a4315f"></path><path d="M0 381L4.8 381C9.7 381 19.3 381 29 381C38.7 381 48.3 381 58 381C67.7 381 77.3 381 87 381C96.7 381 106.3 381 116 381C125.7 381 135.3 381 145.2 381C155 381 165 381 174.8 381C184.7 381 194.3 381 204 381C213.7 381 223.3 381 233 381C242.7 381 252.3 381 262 381C271.7 381 281.3 381 291 381C300.7 381 310.3 381 315.2 381L320 381L320 242L315.2 254C310.3 266 300.7 290 291 283C281.3 276 271.7 238 262 231.2C252.3 224.3 242.7 248.7 233 260.2C223.3 271.7 213.7 270.3 204 258.2C194.3 246 184.7 223 174.8 218.5C165 214 155 228 145.2 245.2C135.3 262.3 125.7 282.7 116 283.3C106.3 284 96.7 265 87 260.5C77.3 256 67.7 266 58 266.7C48.3 267.3 38.7 258.7 29 256.8C19.3 255 9.7 260 4.8 262.5L0 265Z" fill="#8b2a51"></path></svg>