<svg id="visual" viewBox="0 0 2000 500" width="2000" height="500" xmlns="http://www.w3.org/2000/svg" xmlns:xlink="http://www.w3.org/1999/xlink" version="1.1"><path d="M0 238L33.3 234.2C66.7 230.3 133.3 222.7 200 219.5C266.7 216.3 333.3 217.7 400 207C466.7 196.3 533.3 173.7 600 176.8C666.7 180 733.3 209 800 214.2C866.7 219.3 933.3 200.7 1000 200C1066.7 199.3 1133.3 216.7 1200 214.5C1266.7 212.3 1333.3 190.7 1400 187.3C1466.7 184 1533.3 199 1600 210.7C1666.7 222.3 1733.3 230.7 1800 226.3C1866.7 222 1933.3 205 1966.7 196.5L2000 188L2000 0L1966.7 0C1933.3 0 1866.7 0 1800 0C1733.3 0 1666.7 0 1600 0C1533.3 0 1466.7 0 1400 0C1333.3 0 1266.7 0 1200 0C1133.3 0 1066.7 0 1000 0C933.3 0 866.7 0 800 0C733.3 0 666.7 0 600 0C533.3 0 466.7 0 400 0C333.3 0 266.7 0 200 0C133.3 0 66.7 0 33.3 0L0 0Z" fill="#a40b4b"></path><path d="M0 129L33.3 136.3C66.7 143.7 133.3 158.3 200 159C266.7 159.7 333.3 146.3 400 145.7C466.7 145 533.3 157 600 157.8C666.7 158.7 733.3 148.3 800 144.8C866.7 141.3 933.3 144.7 1000 149.2C1066.7 153.7 1133.3 159.3 1200 157.2C1266.7 155 1333.3 145 1400 143.8C1466.7 142.7 1533.3 150.3 1600 154.2C1666.7 158 1733.3 158 1800 162C1866.7 166 1933.3 174 1966.7 178L2000 182L2000 0L1966.7 0C1933.3 0 1866.7 0 1800 0C1733.3 0 1666.7 0 1600 0C1533.3 0 1466.7 0 1400 0C1333.3 0 1266.7 0 1200 0C1133.3 0 1066.7 0 1000 0C933.3 0 866.7 0 800 0C733.3 0 666.7 0 600 0C533.3 0 466.7 0 400 0C333.3 0 266.7 0 200 0C133.3 0 66.7 0 33.3 0L0 0Z" fill="#b51054"></path><path d="M0 154L33.3 145.2C66.7 136.3 133.3 118.7 200 110.7C266.7 102.7 333.3 104.3 400 109.5C466.7 114.7 533.3 123.3 600 123.7C666.7 124 733.3 116 800 115.3C866.7 114.7 933.3 121.3 1000 123.2C1066.7 125 1133.3 122 1200 118.3C1266.7 114.7 1333.3 110.3 1400 110.7C1466.7 111 1533.3 116 1600 125.2C1666.7 134.3 1733.3 147.7 1800 148.8C1866.7 150 1933.3 139 1966.7 133.5L2000 128L2000 0L1966.7 0C1933.3 0 1866.7 0 1800 0C1733.3 0 1666.7 0 1600 0C1533.3 0 1466.7 0 1400 0C1333.3 0 1266.7 0 1200 0C1133.3 0 1066.7 0 1000 0C933.3 0 866.7 0 800 0C733.3 0 666.7 0 600 0C533.3 0 466.7 0 400 0C333.3 0 266.7 0 200 0C133.3 0 66.7 0 33.3 0L0 0Z" fill="#c7155d"></path><path d="M0 85L33.3 89.5C66.7 94 133.3 103 200 104C266.7 105 333.3 98 400 92C466.7 86 533.3 81 600 84.7C666.7 88.3 733.3 100.7 800 99.3C866.7 98 933.3 83 1000 73.8C1066.7 64.7 1133.3 61.3 1200 64.3C1266.7 67.3 1333.3 76.7 1400 80.2C1466.7 83.7 1533.3 81.3 1600 83C1666.7 84.7 1733.3 90.3 1800 95.5C1866.7 100.7 1933.3 105.3 1966.7 107.7L2000 110L2000 0L1966.7 0C1933.3 0 1866.7 0 1800 0C1733.3 0 1666.7 0 1600 0C1533.3 0 1466.7 0 1400 0C1333.3 0 1266.7 0 1200 0C1133.3 0 1066.7 0 1000 0C933.3 0 866.7 0 800 0C733.3 0 666.7 0 600 0C533.3 0 466.7 0 400 0C333.3 0 266.7 0 200 0C133.3 0 66.7 0 33.3 0L0 0Z" fill="#d91966"></path><path d="M0 44L33.3 42.8C66.7 41.7 133.3 39.3 200 41C266.7 42.7 333.3 48.3 400 49.8C466.7 51.3 533.3 48.7 600 51.8C666.7 55 733.3 64 800 67C866.7 70 933.3 67 1000 66.5C1066.7 66 1133.3 68 1200 64.3C1266.7 60.7 1333.3 51.3 1400 51C1466.7 50.7 1533.3 59.3 1600 57.7C1666.7 56 1733.3 44 1800 36.8C1866.7 29.7 1933.3 27.3 1966.7 26.2L2000 25L2000 0L1966.7 0C1933.3 0 1866.7 0 1800 0C1733.3 0 1666.7 0 1600 0C1533.3 0 1466.7 0 1400 0C1333.3 0 1266.7 0 1200 0C1133.3 0 1066.7 0 1000 0C933.3 0 866.7 0 800 0C733.3 0 666.7 0 600 0C533.3 0 466.7 0 400 0C333.3 0 266.7 0 200 0C133.3 0 66.7 0 33.3 0L0 0Z" fill="#ec1e70"></path></svg>