<svg id="visual" viewBox="0 0 900 675" width="900" height="675" xmlns="http://www.w3.org/2000/svg" xmlns:xlink="http://www.w3.org/1999/xlink" version="1.1"><path d="M0 214L15 210.7C30 207.3 60 200.7 90 197.8C120 195 150 196 180 186.3C210 176.7 240 156.3 270 159.2C300 162 330 188 360 192.7C390 197.3 420 180.7 450 180C480 179.3 510 194.7 540 192.7C570 190.7 600 171.3 630 168.3C660 165.3 690 178.7 720 189.2C750 199.7 780 207.3 810 203.5C840 199.7 870 184.3 885 176.7L900 169L900 0L885 0C870 0 840 0 810 0C780 0 750 0 720 0C690 0 660 0 630 0C600 0 570 0 540 0C510 0 480 0 450 0C420 0 390 0 360 0C330 0 300 0 270 0C240 0 210 0 180 0C150 0 120 0 90 0C60 0 30 0 15 0L0 0Z" fill="#a40b4b"></path><path d="M0 116L15 122.7C30 129.3 60 142.7 90 143.3C120 144 150 132 180 131.3C210 130.7 240 141.3 270 142C300 142.7 330 133.3 360 130.2C390 127 420 130 450 134.2C480 138.3 510 143.7 540 141.8C570 140 600 131 630 129.8C660 128.7 690 135.3 720 138.7C750 142 780 142 810 145.7C840 149.3 870 156.7 885 160.3L900 164L900 0L885 0C870 0 840 0 810 0C780 0 750 0 720 0C690 0 660 0 630 0C600 0 570 0 540 0C510 0 480 0 450 0C420 0 390 0 360 0C330 0 300 0 270 0C240 0 210 0 180 0C150 0 120 0 90 0C60 0 30 0 15 0L0 0Z" fill="#b51054"></path><path d="M0 139L15 131C30 123 60 107 90 99.7C120 92.3 150 93.7 180 98.3C210 103 240 111 270 111.3C300 111.7 330 104.3 360 103.7C390 103 420 109 450 110.7C480 112.3 510 109.7 540 106.3C570 103 600 99 630 99.3C660 99.7 690 104.3 720 112.7C750 121 780 133 810 134C840 135 870 125 885 120L900 115L900 0L885 0C870 0 840 0 810 0C780 0 750 0 720 0C690 0 660 0 630 0C600 0 570 0 540 0C510 0 480 0 450 0C420 0 390 0 360 0C330 0 300 0 270 0C240 0 210 0 180 0C150 0 120 0 90 0C60 0 30 0 15 0L0 0Z" fill="#c7155d"></path><path d="M0 77L15 81C30 85 60 93 90 93.8C120 94.7 150 88.3 180 82.8C210 77.3 240 72.7 270 76C300 79.3 330 90.7 360 89.5C390 88.3 420 74.7 450 66.3C480 58 510 55 540 57.7C570 60.3 600 68.7 630 71.8C660 75 690 73 720 74.7C750 76.3 780 81.7 810 86.3C840 91 870 95 885 97L900 99L900 0L885 0C870 0 840 0 810 0C780 0 750 0 720 0C690 0 660 0 630 0C600 0 570 0 540 0C510 0 480 0 450 0C420 0 390 0 360 0C330 0 300 0 270 0C240 0 210 0 180 0C150 0 120 0 90 0C60 0 30 0 15 0L0 0Z" fill="#d91966"></path><path d="M0 39L15 38C30 37 60 35 90 36.5C120 38 150 43 180 44.5C210 46 240 44 270 46.8C300 49.7 330 57.3 360 60C390 62.7 420 60.3 450 60C480 59.7 510 61.3 540 58C570 54.7 600 46.3 630 46C660 45.7 690 53.3 720 51.7C750 50 780 39 810 32.5C840 26 870 24 885 23L900 22L900 0L885 0C870 0 840 0 810 0C780 0 750 0 720 0C690 0 660 0 630 0C600 0 570 0 540 0C510 0 480 0 450 0C420 0 390 0 360 0C330 0 300 0 270 0C240 0 210 0 180 0C150 0 120 0 90 0C60 0 30 0 15 0L0 0Z" fill="#ec1e70"></path></svg>