<svg id="visual" viewBox="0 0 900 675" width="900" height="675" xmlns="http://www.w3.org/2000/svg" xmlns:xlink="http://www.w3.org/1999/xlink" version="1.1"><path d="M0 210L13.7 205.5C27.3 201 54.7 192 82 210C109.3 228 136.7 273 163.8 265.2C191 257.3 218 196.7 245.2 179.8C272.3 163 299.7 190 327 205.8C354.3 221.7 381.7 226.3 409 228.7C436.3 231 463.7 231 491 234.3C518.3 237.7 545.7 244.3 573 227.3C600.3 210.3 627.7 169.7 654.8 149.3C682 129 709 129 736.2 134.7C763.3 140.3 790.7 151.7 818 149.5C845.3 147.3 872.7 131.7 886.3 123.8L900 116L900 0L886.3 0C872.7 0 845.3 0 818 0C790.7 0 763.3 0 736.2 0C709 0 682 0 654.8 0C627.7 0 600.3 0 573 0C545.7 0 518.3 0 491 0C463.7 0 436.3 0 409 0C381.7 0 354.3 0 327 0C299.7 0 272.3 0 245.2 0C218 0 191 0 163.8 0C136.7 0 109.3 0 82 0C54.7 0 27.3 0 13.7 0L0 0Z" fill="#da6a94"></path><path d="M0 271L13.7 263.2C27.3 255.3 54.7 239.7 82 264.5C109.3 289.3 136.7 354.7 163.8 356.8C191 359 218 298 245.2 281C272.3 264 299.7 291 327 308C354.3 325 381.7 332 409 328.7C436.3 325.3 463.7 311.7 491 309.3C518.3 307 545.7 316 573 303.7C600.3 291.3 627.7 257.7 654.8 236.3C682 215 709 206 736.2 211.7C763.3 217.3 790.7 237.7 818 232C845.3 226.3 872.7 194.7 886.3 178.8L900 163L900 114L886.3 121.8C872.7 129.7 845.3 145.3 818 147.5C790.7 149.7 763.3 138.3 736.2 132.7C709 127 682 127 654.8 147.3C627.7 167.7 600.3 208.3 573 225.3C545.7 242.3 518.3 235.7 491 232.3C463.7 229 436.3 229 409 226.7C381.7 224.3 354.3 219.7 327 203.8C299.7 188 272.3 161 245.2 177.8C218 194.7 191 255.3 163.8 263.2C136.7 271 109.3 226 82 208C54.7 190 27.3 199 13.7 203.5L0 208Z" fill="#d14b7e"></path><path d="M0 325L13.7 330.7C27.3 336.3 54.7 347.7 82 374.7C109.3 401.7 136.7 444.3 163.8 445.5C191 446.7 218 406.3 245.2 391.7C272.3 377 299.7 388 327 391.3C354.3 394.7 381.7 390.3 409 391.5C436.3 392.7 463.7 399.3 491 411.7C518.3 424 545.7 442 573 422.8C600.3 403.7 627.7 347.3 654.8 318.2C682 289 709 287 736.2 301.7C763.3 316.3 790.7 347.7 818 340.8C845.3 334 872.7 289 886.3 266.5L900 244L900 161L886.3 176.8C872.7 192.7 845.3 224.3 818 230C790.7 235.7 763.3 215.3 736.2 209.7C709 204 682 213 654.8 234.3C627.7 255.7 600.3 289.3 573 301.7C545.7 314 518.3 305 491 307.3C463.7 309.7 436.3 323.3 409 326.7C381.7 330 354.3 323 327 306C299.7 289 272.3 262 245.2 279C218 296 191 357 163.8 354.8C136.7 352.7 109.3 287.3 82 262.5C54.7 237.7 27.3 253.3 13.7 261.2L0 269Z" fill="#c62368"></path><path d="M0 528L13.7 526.8C27.3 525.7 54.7 523.3 82 531.2C109.3 539 136.7 557 163.8 541.2C191 525.3 218 475.7 245.2 456.5C272.3 437.3 299.7 448.7 327 458.8C354.3 469 381.7 478 409 481.3C436.3 484.7 463.7 482.3 491 492.5C518.3 502.7 545.7 525.3 573 518.7C600.3 512 627.7 476 654.8 462.5C682 449 709 458 736.2 458C763.3 458 790.7 449 818 434.3C845.3 419.7 872.7 399.3 886.3 389.2L900 379L900 242L886.3 264.5C872.7 287 845.3 332 818 338.8C790.7 345.7 763.3 314.3 736.2 299.7C709 285 682 287 654.8 316.2C627.7 345.3 600.3 401.7 573 420.8C545.7 440 518.3 422 491 409.7C463.7 397.3 436.3 390.7 409 389.5C381.7 388.3 354.3 392.7 327 389.3C299.7 386 272.3 375 245.2 389.7C218 404.3 191 444.7 163.8 443.5C136.7 442.3 109.3 399.7 82 372.7C54.7 345.7 27.3 334.3 13.7 328.7L0 323Z" fill="#ab1f5a"></path><path d="M0 676L13.7 676C27.3 676 54.7 676 82 676C109.3 676 136.7 676 163.8 676C191 676 218 676 245.2 676C272.3 676 299.7 676 327 676C354.3 676 381.7 676 409 676C436.3 676 463.7 676 491 676C518.3 676 545.7 676 573 676C600.3 676 627.7 676 654.8 676C682 676 709 676 736.2 676C763.3 676 790.7 676 818 676C845.3 676 872.7 676 886.3 676L900 676L900 377L886.3 387.2C872.7 397.3 845.3 417.7 818 432.3C790.7 447 763.3 456 736.2 456C709 456 682 447 654.8 460.5C627.7 474 600.3 510 573 516.7C545.7 523.3 518.3 500.7 491 490.5C463.7 480.3 436.3 482.7 409 479.3C381.7 476 354.3 467 327 456.8C299.7 446.7 272.3 435.3 245.2 454.5C218 473.7 191 523.3 163.8 539.2C136.7 555 109.3 537 82 529.2C54.7 521.3 27.3 523.7 13.7 524.8L0 526Z" fill="#911b4d"></path></svg>