<svg id="visual" viewBox="0 0 900 675" width="900" height="675" xmlns="http://www.w3.org/2000/svg" xmlns:xlink="http://www.w3.org/1999/xlink" version="1.1"><path d="M0 96L13.7 89.2C27.3 82.3 54.7 68.7 82 61.8C109.3 55 136.7 55 163.8 55C191 55 218 55 245.2 52.8C272.3 50.7 299.7 46.3 327 54.2C354.3 62 381.7 82 409 84.2C436.3 86.3 463.7 70.7 491 69.7C518.3 68.7 545.7 82.3 573 88C600.3 93.7 627.7 91.3 654.8 90.2C682 89 709 89 736.2 91.2C763.3 93.3 790.7 97.7 818 96.5C845.3 95.3 872.7 88.7 886.3 85.3L900 82L900 0L886.3 0C872.7 0 845.3 0 818 0C790.7 0 763.3 0 736.2 0C709 0 682 0 654.8 0C627.7 0 600.3 0 573 0C545.7 0 518.3 0 491 0C463.7 0 436.3 0 409 0C381.7 0 354.3 0 327 0C299.7 0 272.3 0 245.2 0C218 0 191 0 163.8 0C136.7 0 109.3 0 82 0C54.7 0 27.3 0 13.7 0L0 0Z" fill="#9544bf"></path><path d="M0 285L13.7 276C27.3 267 54.7 249 82 255.7C109.3 262.3 136.7 293.7 163.8 325.2C191 356.7 218 388.3 245.2 361.3C272.3 334.3 299.7 248.7 327 221.7C354.3 194.7 381.7 226.3 409 252.2C436.3 278 463.7 298 491 312.5C518.3 327 545.7 336 573 336C600.3 336 627.7 327 654.8 304.5C682 282 709 246 736.2 231.5C763.3 217 790.7 224 818 232C845.3 240 872.7 249 886.3 253.5L900 258L900 80L886.3 83.3C872.7 86.7 845.3 93.3 818 94.5C790.7 95.7 763.3 91.3 736.2 89.2C709 87 682 87 654.8 88.2C627.7 89.3 600.3 91.7 573 86C545.7 80.3 518.3 66.7 491 67.7C463.7 68.7 436.3 84.3 409 82.2C381.7 80 354.3 60 327 52.2C299.7 44.3 272.3 48.7 245.2 50.8C218 53 191 53 163.8 53C136.7 53 109.3 53 82 59.8C54.7 66.7 27.3 80.3 13.7 87.2L0 94Z" fill="#832cb1"></path><path d="M0 507L13.7 501.3C27.3 495.7 54.7 484.3 82 481C109.3 477.7 136.7 482.3 163.8 492.5C191 502.7 218 518.3 245.2 509.3C272.3 500.3 299.7 466.7 327 455.5C354.3 444.3 381.7 455.7 409 456.8C436.3 458 463.7 449 491 443.3C518.3 437.7 545.7 435.3 573 439.8C600.3 444.3 627.7 455.7 654.8 461.3C682 467 709 467 736.2 473.7C763.3 480.3 790.7 493.7 818 490.3C845.3 487 872.7 467 886.3 457L900 447L900 256L886.3 251.5C872.7 247 845.3 238 818 230C790.7 222 763.3 215 736.2 229.5C709 244 682 280 654.8 302.5C627.7 325 600.3 334 573 334C545.7 334 518.3 325 491 310.5C463.7 296 436.3 276 409 250.2C381.7 224.3 354.3 192.7 327 219.7C299.7 246.7 272.3 332.3 245.2 359.3C218 386.3 191 354.7 163.8 323.2C136.7 291.7 109.3 260.3 82 253.7C54.7 247 27.3 265 13.7 274L0 283Z" fill="#710ba3"></path><path d="M0 582L13.7 587.5C27.3 593 54.7 604 82 604C109.3 604 136.7 593 163.8 588.5C191 584 218 586 245.2 571.3C272.3 556.7 299.7 525.3 327 527.7C354.3 530 381.7 566 409 576.2C436.3 586.3 463.7 570.7 491 563.8C518.3 557 545.7 559 573 561.2C600.3 563.3 627.7 565.7 654.8 566.8C682 568 709 568 736.2 573.7C763.3 579.3 790.7 590.7 818 586.2C845.3 581.7 872.7 561.3 886.3 551.2L900 541L900 445L886.3 455C872.7 465 845.3 485 818 488.3C790.7 491.7 763.3 478.3 736.2 471.7C709 465 682 465 654.8 459.3C627.7 453.7 600.3 442.3 573 437.8C545.7 433.3 518.3 435.7 491 441.3C463.7 447 436.3 456 409 454.8C381.7 453.7 354.3 442.3 327 453.5C299.7 464.7 272.3 498.3 245.2 507.3C218 516.3 191 500.7 163.8 490.5C136.7 480.3 109.3 475.7 82 479C54.7 482.3 27.3 493.7 13.7 499.3L0 505Z" fill="#610d8d"></path><path d="M0 676L13.7 676C27.3 676 54.7 676 82 676C109.3 676 136.7 676 163.8 676C191 676 218 676 245.2 676C272.3 676 299.7 676 327 676C354.3 676 381.7 676 409 676C436.3 676 463.7 676 491 676C518.3 676 545.7 676 573 676C600.3 676 627.7 676 654.8 676C682 676 709 676 736.2 676C763.3 676 790.7 676 818 676C845.3 676 872.7 676 886.3 676L900 676L900 539L886.3 549.2C872.7 559.3 845.3 579.7 818 584.2C790.7 588.7 763.3 577.3 736.2 571.7C709 566 682 566 654.8 564.8C627.7 563.7 600.3 561.3 573 559.2C545.7 557 518.3 555 491 561.8C463.7 568.7 436.3 584.3 409 574.2C381.7 564 354.3 528 327 525.7C299.7 523.3 272.3 554.7 245.2 569.3C218 584 191 582 163.8 586.5C136.7 591 109.3 602 82 602C54.7 602 27.3 591 13.7 585.5L0 580Z" fill="#510e78"></path></svg>