<svg id="visual" viewBox="0 0 2000 100" width="2000" height="100" xmlns="http://www.w3.org/2000/svg" xmlns:xlink="http://www.w3.org/1999/xlink" version="1.1"><path d="M0 71L47.7 69.8C95.3 68.7 190.7 66.3 285.8 64.7C381 63 476 62 571.2 63.5C666.3 65 761.7 69 857 69.7C952.3 70.3 1047.7 67.7 1143 65.2C1238.3 62.7 1333.7 60.3 1428.8 60.2C1524 60 1619 62 1714.2 63C1809.3 64 1904.7 64 1952.3 64L2000 64L2000 101L1952.3 101C1904.7 101 1809.3 101 1714.2 101C1619 101 1524 101 1428.8 101C1333.7 101 1238.3 101 1143 101C1047.7 101 952.3 101 857 101C761.7 101 666.3 101 571.2 101C476 101 381 101 285.8 101C190.7 101 95.3 101 47.7 101L0 101Z" fill="#4facf7"></path><path d="M0 68L47.7 67.7C95.3 67.3 190.7 66.7 285.8 66.3C381 66 476 66 571.2 67.8C666.3 69.7 761.7 73.3 857 74C952.3 74.7 1047.7 72.3 1143 72C1238.3 71.7 1333.7 73.3 1428.8 72.7C1524 72 1619 69 1714.2 68.5C1809.3 68 1904.7 70 1952.3 71L2000 72L2000 101L1952.3 101C1904.7 101 1809.3 101 1714.2 101C1619 101 1524 101 1428.8 101C1333.7 101 1238.3 101 1143 101C1047.7 101 952.3 101 857 101C761.7 101 666.3 101 571.2 101C476 101 381 101 285.8 101C190.7 101 95.3 101 47.7 101L0 101Z" fill="#2b9dfc"></path><path d="M0 79L47.7 78.7C95.3 78.3 190.7 77.7 285.8 77.2C381 76.7 476 76.3 571.2 76.5C666.3 76.7 761.7 77.3 857 78.3C952.3 79.3 1047.7 80.7 1143 79.8C1238.3 79 1333.7 76 1428.8 75.5C1524 75 1619 77 1714.2 77.2C1809.3 77.3 1904.7 75.7 1952.3 74.8L2000 74L2000 101L1952.3 101C1904.7 101 1809.3 101 1714.2 101C1619 101 1524 101 1428.8 101C1333.7 101 1238.3 101 1143 101C1047.7 101 952.3 101 857 101C761.7 101 666.3 101 571.2 101C476 101 381 101 285.8 101C190.7 101 95.3 101 47.7 101L0 101Z" fill="#008cff"></path><path d="M0 81L47.7 81.7C95.3 82.3 190.7 83.7 285.8 84.8C381 86 476 87 571.2 86.5C666.3 86 761.7 84 857 84C952.3 84 1047.7 86 1143 86.3C1238.3 86.7 1333.7 85.3 1428.8 84.3C1524 83.3 1619 82.7 1714.2 83C1809.3 83.3 1904.7 84.7 1952.3 85.3L2000 86L2000 101L1952.3 101C1904.7 101 1809.3 101 1714.2 101C1619 101 1524 101 1428.8 101C1333.7 101 1238.3 101 1143 101C1047.7 101 952.3 101 857 101C761.7 101 666.3 101 571.2 101C476 101 381 101 285.8 101C190.7 101 95.3 101 47.7 101L0 101Z" fill="#007aff"></path><path d="M0 88L47.7 89.2C95.3 90.3 190.7 92.7 285.8 93.3C381 94 476 93 571.2 92.5C666.3 92 761.7 92 857 91.3C952.3 90.7 1047.7 89.3 1143 89.3C1238.3 89.3 1333.7 90.7 1428.8 91.7C1524 92.7 1619 93.3 1714.2 93.3C1809.3 93.3 1904.7 92.7 1952.3 92.3L2000 92L2000 101L1952.3 101C1904.7 101 1809.3 101 1714.2 101C1619 101 1524 101 1428.8 101C1333.7 101 1238.3 101 1143 101C1047.7 101 952.3 101 857 101C761.7 101 666.3 101 571.2 101C476 101 381 101 285.8 101C190.7 101 95.3 101 47.7 101L0 101Z" fill="#0066ff"></path></svg>