<svg id="visual" viewBox="0 0 2000 600" width="2000" height="600" xmlns="http://www.w3.org/2000/svg" xmlns:xlink="http://www.w3.org/1999/xlink" version="1.1"><path d="M0 229L41.7 225.3C83.3 221.7 166.7 214.3 250 213C333.3 211.7 416.7 216.3 500 221.3C583.3 226.3 666.7 231.7 750 232C833.3 232.3 916.7 227.7 1000 217C1083.3 206.3 1166.7 189.7 1250 186.2C1333.3 182.7 1416.7 192.3 1500 192C1583.3 191.7 1666.7 181.3 1750 184.3C1833.3 187.3 1916.7 203.7 1958.3 211.8L2000 220L2000 0L1958.3 0C1916.7 0 1833.3 0 1750 0C1666.7 0 1583.3 0 1500 0C1416.7 0 1333.3 0 1250 0C1166.7 0 1083.3 0 1000 0C916.7 0 833.3 0 750 0C666.7 0 583.3 0 500 0C416.7 0 333.3 0 250 0C166.7 0 83.3 0 41.7 0L0 0Z" fill="#4facf7"></path><path d="M0 195L41.7 191.8C83.3 188.7 166.7 182.3 250 175C333.3 167.7 416.7 159.3 500 158C583.3 156.7 666.7 162.3 750 165.3C833.3 168.3 916.7 168.7 1000 168.3C1083.3 168 1166.7 167 1250 169.8C1333.3 172.7 1416.7 179.3 1500 184.2C1583.3 189 1666.7 192 1750 184.5C1833.3 177 1916.7 159 1958.3 150L2000 141L2000 0L1958.3 0C1916.7 0 1833.3 0 1750 0C1666.7 0 1583.3 0 1500 0C1416.7 0 1333.3 0 1250 0C1166.7 0 1083.3 0 1000 0C916.7 0 833.3 0 750 0C666.7 0 583.3 0 500 0C416.7 0 333.3 0 250 0C166.7 0 83.3 0 41.7 0L0 0Z" fill="#3fa0fb"></path><path d="M0 126L41.7 124.2C83.3 122.3 166.7 118.7 250 119C333.3 119.3 416.7 123.7 500 123.5C583.3 123.3 666.7 118.7 750 121.7C833.3 124.7 916.7 135.3 1000 142.2C1083.3 149 1166.7 152 1250 146.5C1333.3 141 1416.7 127 1500 124C1583.3 121 1666.7 129 1750 131.8C1833.3 134.7 1916.7 132.3 1958.3 131.2L2000 130L2000 0L1958.3 0C1916.7 0 1833.3 0 1750 0C1666.7 0 1583.3 0 1500 0C1416.7 0 1333.3 0 1250 0C1166.7 0 1083.3 0 1000 0C916.7 0 833.3 0 750 0C666.7 0 583.3 0 500 0C416.7 0 333.3 0 250 0C166.7 0 83.3 0 41.7 0L0 0Z" fill="#3c92fe"></path><path d="M0 124L41.7 119.5C83.3 115 166.7 106 250 99.3C333.3 92.7 416.7 88.3 500 93.3C583.3 98.3 666.7 112.7 750 119.5C833.3 126.3 916.7 125.7 1000 126.3C1083.3 127 1166.7 129 1250 124.3C1333.3 119.7 1416.7 108.3 1500 106.2C1583.3 104 1666.7 111 1750 113C1833.3 115 1916.7 112 1958.3 110.5L2000 109L2000 0L1958.3 0C1916.7 0 1833.3 0 1750 0C1666.7 0 1583.3 0 1500 0C1416.7 0 1333.3 0 1250 0C1166.7 0 1083.3 0 1000 0C916.7 0 833.3 0 750 0C666.7 0 583.3 0 500 0C416.7 0 333.3 0 250 0C166.7 0 83.3 0 41.7 0L0 0Z" fill="#4783fd"></path><path d="M0 86L41.7 86.5C83.3 87 166.7 88 250 86.2C333.3 84.3 416.7 79.7 500 79.8C583.3 80 666.7 85 750 83.5C833.3 82 916.7 74 1000 71.3C1083.3 68.7 1166.7 71.3 1250 71.5C1333.3 71.7 1416.7 69.3 1500 65.8C1583.3 62.3 1666.7 57.7 1750 58.7C1833.3 59.7 1916.7 66.3 1958.3 69.7L2000 73L2000 0L1958.3 0C1916.7 0 1833.3 0 1750 0C1666.7 0 1583.3 0 1500 0C1416.7 0 1333.3 0 1250 0C1166.7 0 1083.3 0 1000 0C916.7 0 833.3 0 750 0C666.7 0 583.3 0 500 0C416.7 0 333.3 0 250 0C166.7 0 83.3 0 41.7 0L0 0Z" fill="#5b72fa"></path><path d="M0 25L41.7 25.8C83.3 26.7 166.7 28.3 250 29.2C333.3 30 416.7 30 500 31C583.3 32 666.7 34 750 38.3C833.3 42.7 916.7 49.3 1000 50.2C1083.3 51 1166.7 46 1250 42.3C1333.3 38.7 1416.7 36.3 1500 37.2C1583.3 38 1666.7 42 1750 42.7C1833.3 43.3 1916.7 40.7 1958.3 39.3L2000 38L2000 0L1958.3 0C1916.7 0 1833.3 0 1750 0C1666.7 0 1583.3 0 1500 0C1416.7 0 1333.3 0 1250 0C1166.7 0 1083.3 0 1000 0C916.7 0 833.3 0 750 0C666.7 0 583.3 0 500 0C416.7 0 333.3 0 250 0C166.7 0 83.3 0 41.7 0L0 0Z" fill="#715df2"></path></svg>