<svg id="visual" viewBox="0 0 1000 200" width="1000" height="200" xmlns="http://www.w3.org/2000/svg" xmlns:xlink="http://www.w3.org/1999/xlink" version="1.1"><path d="M0 53L15.2 50.7C30.3 48.3 60.7 43.7 91 47.3C121.3 51 151.7 63 182 66.3C212.3 69.7 242.7 64.3 273 62C303.3 59.7 333.7 60.3 364 58.3C394.3 56.3 424.7 51.7 454.8 48.3C485 45 515 43 545.2 42.7C575.3 42.3 605.7 43.7 636 43.3C666.3 43 696.7 41 727 47C757.3 53 787.7 67 818 75C848.3 83 878.7 85 909 76.7C939.3 68.3 969.7 49.7 984.8 40.3L1000 31L1000 0L984.8 0C969.7 0 939.3 0 909 0C878.7 0 848.3 0 818 0C787.7 0 757.3 0 727 0C696.7 0 666.3 0 636 0C605.7 0 575.3 0 545.2 0C515 0 485 0 454.8 0C424.7 0 394.3 0 364 0C333.7 0 303.3 0 273 0C242.7 0 212.3 0 182 0C151.7 0 121.3 0 91 0C60.7 0 30.3 0 15.2 0L0 0Z" fill="#ffc87a"></path><path d="M0 145L15.2 139.7C30.3 134.3 60.7 123.7 91 117C121.3 110.3 151.7 107.7 182 107.7C212.3 107.7 242.7 110.3 273 110.3C303.3 110.3 333.7 107.7 364 106.3C394.3 105 424.7 105 454.8 106.3C485 107.7 515 110.3 545.2 111C575.3 111.7 605.7 110.3 636 108.3C666.3 106.3 696.7 103.7 727 105C757.3 106.3 787.7 111.7 818 115C848.3 118.3 878.7 119.7 909 120.7C939.3 121.7 969.7 122.3 984.8 122.7L1000 123L1000 29L984.8 38.3C969.7 47.7 939.3 66.3 909 74.7C878.7 83 848.3 81 818 73C787.7 65 757.3 51 727 45C696.7 39 666.3 41 636 41.3C605.7 41.7 575.3 40.3 545.2 40.7C515 41 485 43 454.8 46.3C424.7 49.7 394.3 54.3 364 56.3C333.7 58.3 303.3 57.7 273 60C242.7 62.3 212.3 67.7 182 64.3C151.7 61 121.3 49 91 45.3C60.7 41.7 30.3 46.3 15.2 48.7L0 51Z" fill="#febc5c"></path><path d="M0 161L15.2 155.7C30.3 150.3 60.7 139.7 91 133.7C121.3 127.7 151.7 126.3 182 128C212.3 129.7 242.7 134.3 273 137C303.3 139.7 333.7 140.3 364 138C394.3 135.7 424.7 130.3 454.8 129C485 127.7 515 130.3 545.2 132.3C575.3 134.3 605.7 135.7 636 137.3C666.3 139 696.7 141 727 144.7C757.3 148.3 787.7 153.7 818 154.3C848.3 155 878.7 151 909 150C939.3 149 969.7 151 984.8 152L1000 153L1000 121L984.8 120.7C969.7 120.3 939.3 119.7 909 118.7C878.7 117.7 848.3 116.3 818 113C787.7 109.7 757.3 104.3 727 103C696.7 101.7 666.3 104.3 636 106.3C605.7 108.3 575.3 109.7 545.2 109C515 108.3 485 105.7 454.8 104.3C424.7 103 394.3 103 364 104.3C333.7 105.7 303.3 108.3 273 108.3C242.7 108.3 212.3 105.7 182 105.7C151.7 105.7 121.3 108.3 91 115C60.7 121.7 30.3 132.3 15.2 137.7L0 143Z" fill="#fcaf3c"></path><path d="M0 175L15.2 171.3C30.3 167.7 60.7 160.3 91 156.3C121.3 152.3 151.7 151.7 182 155C212.3 158.3 242.7 165.7 273 167.3C303.3 169 333.7 165 364 160.7C394.3 156.3 424.7 151.7 454.8 150.3C485 149 515 151 545.2 151.7C575.3 152.3 605.7 151.7 636 152.3C666.3 153 696.7 155 727 159.7C757.3 164.3 787.7 171.7 818 174.3C848.3 177 878.7 175 909 173.3C939.3 171.7 969.7 170.3 984.8 169.7L1000 169L1000 151L984.8 150C969.7 149 939.3 147 909 148C878.7 149 848.3 153 818 152.3C787.7 151.7 757.3 146.3 727 142.7C696.7 139 666.3 137 636 135.3C605.7 133.7 575.3 132.3 545.2 130.3C515 128.3 485 125.7 454.8 127C424.7 128.3 394.3 133.7 364 136C333.7 138.3 303.3 137.7 273 135C242.7 132.3 212.3 127.7 182 126C151.7 124.3 121.3 125.7 91 131.7C60.7 137.7 30.3 148.3 15.2 153.7L0 159Z" fill="#dd9832"></path><path d="M0 201L15.2 201C30.3 201 60.7 201 91 201C121.3 201 151.7 201 182 201C212.3 201 242.7 201 273 201C303.3 201 333.7 201 364 201C394.3 201 424.7 201 454.8 201C485 201 515 201 545.2 201C575.3 201 605.7 201 636 201C666.3 201 696.7 201 727 201C757.3 201 787.7 201 818 201C848.3 201 878.7 201 909 201C939.3 201 969.7 201 984.8 201L1000 201L1000 167L984.8 167.7C969.7 168.3 939.3 169.7 909 171.3C878.7 173 848.3 175 818 172.3C787.7 169.7 757.3 162.3 727 157.7C696.7 153 666.3 151 636 150.3C605.7 149.7 575.3 150.3 545.2 149.7C515 149 485 147 454.8 148.3C424.7 149.7 394.3 154.3 364 158.7C333.7 163 303.3 167 273 165.3C242.7 163.7 212.3 156.3 182 153C151.7 149.7 121.3 150.3 91 154.3C60.7 158.3 30.3 165.7 15.2 169.3L0 173Z" fill="#be8128"></path></svg>