<svg id="visual" viewBox="0 0 1000 200" width="1000" height="200" xmlns="http://www.w3.org/2000/svg" xmlns:xlink="http://www.w3.org/1999/xlink" version="1.1"><path d="M0 27L15.2 26C30.3 25 60.7 23 91 25.3C121.3 27.7 151.7 34.3 182 35.7C212.3 37 242.7 33 273 35C303.3 37 333.7 45 364 46C394.3 47 424.7 41 454.8 38.7C485 36.3 515 37.7 545.2 35.7C575.3 33.7 605.7 28.3 636 28C666.3 27.7 696.7 32.3 727 32.3C757.3 32.3 787.7 27.7 818 29C848.3 30.3 878.7 37.7 909 43.7C939.3 49.7 969.7 54.3 984.8 56.7L1000 59L1000 0L984.8 0C969.7 0 939.3 0 909 0C878.7 0 848.3 0 818 0C787.7 0 757.3 0 727 0C696.7 0 666.3 0 636 0C605.7 0 575.3 0 545.2 0C515 0 485 0 454.8 0C424.7 0 394.3 0 364 0C333.7 0 303.3 0 273 0C242.7 0 212.3 0 182 0C151.7 0 121.3 0 91 0C60.7 0 30.3 0 15.2 0L0 0Z" fill="#6198ff"></path><path d="M0 57L15.2 66.7C30.3 76.3 60.7 95.7 91 104C121.3 112.3 151.7 109.7 182 103.7C212.3 97.7 242.7 88.3 273 89C303.3 89.7 333.7 100.3 364 106.7C394.3 113 424.7 115 454.8 112.7C485 110.3 515 103.7 545.2 95.3C575.3 87 605.7 77 636 77.7C666.3 78.3 696.7 89.7 727 96.7C757.3 103.7 787.7 106.3 818 111.7C848.3 117 878.7 125 909 128.3C939.3 131.7 969.7 130.3 984.8 129.7L1000 129L1000 57L984.8 54.7C969.7 52.3 939.3 47.7 909 41.7C878.7 35.7 848.3 28.3 818 27C787.7 25.7 757.3 30.3 727 30.3C696.7 30.3 666.3 25.7 636 26C605.7 26.3 575.3 31.7 545.2 33.7C515 35.7 485 34.3 454.8 36.7C424.7 39 394.3 45 364 44C333.7 43 303.3 35 273 33C242.7 31 212.3 35 182 33.7C151.7 32.3 121.3 25.7 91 23.3C60.7 21 30.3 23 15.2 24L0 25Z" fill="#3c80ff"></path><path d="M0 91L15.2 99C30.3 107 60.7 123 91 130.7C121.3 138.3 151.7 137.7 182 132.3C212.3 127 242.7 117 273 115.3C303.3 113.7 333.7 120.3 364 125C394.3 129.7 424.7 132.3 454.8 130.3C485 128.3 515 121.7 545.2 113C575.3 104.3 605.7 93.7 636 95.3C666.3 97 696.7 111 727 119.7C757.3 128.3 787.7 131.7 818 135.3C848.3 139 878.7 143 909 144.7C939.3 146.3 969.7 145.7 984.8 145.3L1000 145L1000 127L984.8 127.7C969.7 128.3 939.3 129.7 909 126.3C878.7 123 848.3 115 818 109.7C787.7 104.3 757.3 101.7 727 94.7C696.7 87.7 666.3 76.3 636 75.7C605.7 75 575.3 85 545.2 93.3C515 101.7 485 108.3 454.8 110.7C424.7 113 394.3 111 364 104.7C333.7 98.3 303.3 87.7 273 87C242.7 86.3 212.3 95.7 182 101.7C151.7 107.7 121.3 110.3 91 102C60.7 93.7 30.3 74.3 15.2 64.7L0 55Z" fill="#0066ff"></path><path d="M0 171L15.2 171.3C30.3 171.7 60.7 172.3 91 171.7C121.3 171 151.7 169 182 168.7C212.3 168.3 242.7 169.7 273 169.3C303.3 169 333.7 167 364 168.7C394.3 170.3 424.7 175.7 454.8 176C485 176.3 515 171.7 545.2 168.3C575.3 165 605.7 163 636 162.7C666.3 162.3 696.7 163.7 727 164.7C757.3 165.7 787.7 166.3 818 169.7C848.3 173 878.7 179 909 181.7C939.3 184.3 969.7 183.7 984.8 183.3L1000 183L1000 143L984.8 143.3C969.7 143.7 939.3 144.3 909 142.7C878.7 141 848.3 137 818 133.3C787.7 129.7 757.3 126.3 727 117.7C696.7 109 666.3 95 636 93.3C605.7 91.7 575.3 102.3 545.2 111C515 119.7 485 126.3 454.8 128.3C424.7 130.3 394.3 127.7 364 123C333.7 118.3 303.3 111.7 273 113.3C242.7 115 212.3 125 182 130.3C151.7 135.7 121.3 136.3 91 128.7C60.7 121 30.3 105 15.2 97L0 89Z" fill="#0059dd"></path><path d="M0 201L15.2 201C30.3 201 60.7 201 91 201C121.3 201 151.7 201 182 201C212.3 201 242.7 201 273 201C303.3 201 333.7 201 364 201C394.3 201 424.7 201 454.8 201C485 201 515 201 545.2 201C575.3 201 605.7 201 636 201C666.3 201 696.7 201 727 201C757.3 201 787.7 201 818 201C848.3 201 878.7 201 909 201C939.3 201 969.7 201 984.8 201L1000 201L1000 181L984.8 181.3C969.7 181.7 939.3 182.3 909 179.7C878.7 177 848.3 171 818 167.7C787.7 164.3 757.3 163.7 727 162.7C696.7 161.7 666.3 160.3 636 160.7C605.7 161 575.3 163 545.2 166.3C515 169.7 485 174.3 454.8 174C424.7 173.7 394.3 168.3 364 166.7C333.7 165 303.3 167 273 167.3C242.7 167.7 212.3 166.3 182 166.7C151.7 167 121.3 169 91 169.7C60.7 170.3 30.3 169.7 15.2 169.3L0 169Z" fill="#004cbb"></path></svg>