<svg id="visual" viewBox="0 0 1000 250" width="1000" height="250" xmlns="http://www.w3.org/2000/svg" xmlns:xlink="http://www.w3.org/1999/xlink" version="1.1"><path d="M0 85L23.8 84.8C47.7 84.7 95.3 84.3 143 81.5C190.7 78.7 238.3 73.3 286 72.7C333.7 72 381.3 76 428.8 80.7C476.3 85.3 523.7 90.7 571.2 92.5C618.7 94.3 666.3 92.7 714 91.8C761.7 91 809.3 91 857 88C904.7 85 952.3 79 976.2 76L1000 73L1000 0L976.2 0C952.3 0 904.7 0 857 0C809.3 0 761.7 0 714 0C666.3 0 618.7 0 571.2 0C523.7 0 476.3 0 428.8 0C381.3 0 333.7 0 286 0C238.3 0 190.7 0 143 0C95.3 0 47.7 0 23.8 0L0 0Z" fill="#dc7c3e"></path><path d="M0 72L23.8 73.2C47.7 74.3 95.3 76.7 143 74.2C190.7 71.7 238.3 64.3 286 65.2C333.7 66 381.3 75 428.8 79.2C476.3 83.3 523.7 82.7 571.2 81.3C618.7 80 666.3 78 714 75C761.7 72 809.3 68 857 65.8C904.7 63.7 952.3 63.3 976.2 63.2L1000 63L1000 0L976.2 0C952.3 0 904.7 0 857 0C809.3 0 761.7 0 714 0C666.3 0 618.7 0 571.2 0C523.7 0 476.3 0 428.8 0C381.3 0 333.7 0 286 0C238.3 0 190.7 0 143 0C95.3 0 47.7 0 23.8 0L0 0Z" fill="#e88d36"></path><path d="M0 54L23.8 52.8C47.7 51.7 95.3 49.3 143 50.7C190.7 52 238.3 57 286 57.7C333.7 58.3 381.3 54.7 428.8 54.5C476.3 54.3 523.7 57.7 571.2 57.7C618.7 57.7 666.3 54.3 714 53.3C761.7 52.3 809.3 53.7 857 51.2C904.7 48.7 952.3 42.3 976.2 39.2L1000 36L1000 0L976.2 0C952.3 0 904.7 0 857 0C809.3 0 761.7 0 714 0C666.3 0 618.7 0 571.2 0C523.7 0 476.3 0 428.8 0C381.3 0 333.7 0 286 0C238.3 0 190.7 0 143 0C95.3 0 47.7 0 23.8 0L0 0Z" fill="#f09f2c"></path><path d="M0 26L23.8 25.8C47.7 25.7 95.3 25.3 143 27.2C190.7 29 238.3 33 286 33.2C333.7 33.3 381.3 29.7 428.8 27.3C476.3 25 523.7 24 571.2 27.5C618.7 31 666.3 39 714 39.3C761.7 39.7 809.3 32.3 857 31.3C904.7 30.3 952.3 35.7 976.2 38.3L1000 41L1000 0L976.2 0C952.3 0 904.7 0 857 0C809.3 0 761.7 0 714 0C666.3 0 618.7 0 571.2 0C523.7 0 476.3 0 428.8 0C381.3 0 333.7 0 286 0C238.3 0 190.7 0 143 0C95.3 0 47.7 0 23.8 0L0 0Z" fill="#f5b220"></path><path d="M0 26L23.8 24C47.7 22 95.3 18 143 16.3C190.7 14.7 238.3 15.3 286 15C333.7 14.7 381.3 13.3 428.8 15.2C476.3 17 523.7 22 571.2 24.8C618.7 27.7 666.3 28.3 714 26C761.7 23.7 809.3 18.3 857 15.5C904.7 12.7 952.3 12.3 976.2 12.2L1000 12L1000 0L976.2 0C952.3 0 904.7 0 857 0C809.3 0 761.7 0 714 0C666.3 0 618.7 0 571.2 0C523.7 0 476.3 0 428.8 0C381.3 0 333.7 0 286 0C238.3 0 190.7 0 143 0C95.3 0 47.7 0 23.8 0L0 0Z" fill="#f7c60f"></path></svg>