<svg id="visual" viewBox="0 0 700 350" width="700" height="350" xmlns="http://www.w3.org/2000/svg" xmlns:xlink="http://www.w3.org/1999/xlink" version="1.1"><path d="M0 29L10.7 32C21.3 35 42.7 41 63.8 45.2C85 49.3 106 51.7 127.2 52.8C148.3 54 169.7 54 191 56.8C212.3 59.7 233.7 65.3 254.8 60.7C276 56 297 41 318.2 39.3C339.3 37.7 360.7 49.3 381.8 53.3C403 57.3 424 53.7 445.2 52.5C466.3 51.3 487.7 52.7 509 54.5C530.3 56.3 551.7 58.7 572.8 62.2C594 65.7 615 70.3 636.2 66.8C657.3 63.3 678.7 51.7 689.3 45.8L700 40L700 0L689.3 0C678.7 0 657.3 0 636.2 0C615 0 594 0 572.8 0C551.7 0 530.3 0 509 0C487.7 0 466.3 0 445.2 0C424 0 403 0 381.8 0C360.7 0 339.3 0 318.2 0C297 0 276 0 254.8 0C233.7 0 212.3 0 191 0C169.7 0 148.3 0 127.2 0C106 0 85 0 63.8 0C42.7 0 21.3 0 10.7 0L0 0Z" fill="#ffe06b"></path><path d="M0 131L10.7 129.7C21.3 128.3 42.7 125.7 63.8 120.3C85 115 106 107 127.2 108.8C148.3 110.7 169.7 122.3 191 126.3C212.3 130.3 233.7 126.7 254.8 114.5C276 102.3 297 81.7 318.2 84.7C339.3 87.7 360.7 114.3 381.8 127.2C403 140 424 139 445.2 138.5C466.3 138 487.7 138 509 129.8C530.3 121.7 551.7 105.3 572.8 100C594 94.7 615 100.3 636.2 107.8C657.3 115.3 678.7 124.7 689.3 129.3L700 134L700 38L689.3 43.8C678.7 49.7 657.3 61.3 636.2 64.8C615 68.3 594 63.7 572.8 60.2C551.7 56.7 530.3 54.3 509 52.5C487.7 50.7 466.3 49.3 445.2 50.5C424 51.7 403 55.3 381.8 51.3C360.7 47.3 339.3 35.7 318.2 37.3C297 39 276 54 254.8 58.7C233.7 63.3 212.3 57.7 191 54.8C169.7 52 148.3 52 127.2 50.8C106 49.7 85 47.3 63.8 43.2C42.7 39 21.3 33 10.7 30L0 27Z" fill="#ffd946"></path><path d="M0 257L10.7 248.8C21.3 240.7 42.7 224.3 63.8 209.2C85 194 106 180 127.2 175.8C148.3 171.7 169.7 177.3 191 184.8C212.3 192.3 233.7 201.7 254.8 198.8C276 196 297 181 318.2 175.8C339.3 170.7 360.7 175.3 381.8 189.8C403 204.3 424 228.7 445.2 238C466.3 247.3 487.7 241.7 509 230.7C530.3 219.7 551.7 203.3 572.8 196.8C594 190.3 615 193.7 636.2 205.3C657.3 217 678.7 237 689.3 247L700 257L700 132L689.3 127.3C678.7 122.7 657.3 113.3 636.2 105.8C615 98.3 594 92.7 572.8 98C551.7 103.3 530.3 119.7 509 127.8C487.7 136 466.3 136 445.2 136.5C424 137 403 138 381.8 125.2C360.7 112.3 339.3 85.7 318.2 82.7C297 79.7 276 100.3 254.8 112.5C233.7 124.7 212.3 128.3 191 124.3C169.7 120.3 148.3 108.7 127.2 106.8C106 105 85 113 63.8 118.3C42.7 123.7 21.3 126.3 10.7 127.7L0 129Z" fill="#ffd100"></path><path d="M0 295L10.7 287.5C21.3 280 42.7 265 63.8 251C85 237 106 224 127.2 222.2C148.3 220.3 169.7 229.7 191 233.8C212.3 238 233.7 237 254.8 231.8C276 226.7 297 217.3 318.2 216.7C339.3 216 360.7 224 381.8 239.2C403 254.3 424 276.7 445.2 284.8C466.3 293 487.7 287 509 276.5C530.3 266 551.7 251 572.8 244C594 237 615 238 636.2 247.3C657.3 256.7 678.7 274.3 689.3 283.2L700 292L700 255L689.3 245C678.7 235 657.3 215 636.2 203.3C615 191.7 594 188.3 572.8 194.8C551.7 201.3 530.3 217.7 509 228.7C487.7 239.7 466.3 245.3 445.2 236C424 226.7 403 202.3 381.8 187.8C360.7 173.3 339.3 168.7 318.2 173.8C297 179 276 194 254.8 196.8C233.7 199.7 212.3 190.3 191 182.8C169.7 175.3 148.3 169.7 127.2 173.8C106 178 85 192 63.8 207.2C42.7 222.3 21.3 238.7 10.7 246.8L0 255Z" fill="#dcb502"></path><path d="M0 351L10.7 351C21.3 351 42.7 351 63.8 351C85 351 106 351 127.2 351C148.3 351 169.7 351 191 351C212.3 351 233.7 351 254.8 351C276 351 297 351 318.2 351C339.3 351 360.7 351 381.8 351C403 351 424 351 445.2 351C466.3 351 487.7 351 509 351C530.3 351 551.7 351 572.8 351C594 351 615 351 636.2 351C657.3 351 678.7 351 689.3 351L700 351L700 290L689.3 281.2C678.7 272.3 657.3 254.7 636.2 245.3C615 236 594 235 572.8 242C551.7 249 530.3 264 509 274.5C487.7 285 466.3 291 445.2 282.8C424 274.7 403 252.3 381.8 237.2C360.7 222 339.3 214 318.2 214.7C297 215.3 276 224.7 254.8 229.8C233.7 235 212.3 236 191 231.8C169.7 227.7 148.3 218.3 127.2 220.2C106 222 85 235 63.8 249C42.7 263 21.3 278 10.7 285.5L0 293Z" fill="#ba9903"></path></svg>