<svg id="visual" viewBox="0 0 1000 200" width="1000" height="200" xmlns="http://www.w3.org/2000/svg" xmlns:xlink="http://www.w3.org/1999/xlink" version="1.1"><path d="M0 68L23.8 67.8C47.7 67.7 95.3 67.3 143 65C190.7 62.7 238.3 58.3 286 57.8C333.7 57.3 381.3 60.7 428.8 64.5C476.3 68.3 523.7 72.7 571.2 74.2C618.7 75.7 666.3 74.3 714 73.7C761.7 73 809.3 73 857 70.5C904.7 68 952.3 63 976.2 60.5L1000 58L1000 0L976.2 0C952.3 0 904.7 0 857 0C809.3 0 761.7 0 714 0C666.3 0 618.7 0 571.2 0C523.7 0 476.3 0 428.8 0C381.3 0 333.7 0 286 0C238.3 0 190.7 0 143 0C95.3 0 47.7 0 23.8 0L0 0Z" fill="#dc7c3e"></path><path d="M0 57L23.8 58C47.7 59 95.3 61 143 59.2C190.7 57.3 238.3 51.7 286 52.3C333.7 53 381.3 60 428.8 63.2C476.3 66.3 523.7 65.7 571.2 64.5C618.7 63.3 666.3 61.7 714 59.3C761.7 57 809.3 54 857 52.3C904.7 50.7 952.3 50.3 976.2 50.2L1000 50L1000 0L976.2 0C952.3 0 904.7 0 857 0C809.3 0 761.7 0 714 0C666.3 0 618.7 0 571.2 0C523.7 0 476.3 0 428.8 0C381.3 0 333.7 0 286 0C238.3 0 190.7 0 143 0C95.3 0 47.7 0 23.8 0L0 0Z" fill="#e88d36"></path><path d="M0 43L23.8 42C47.7 41 95.3 39 143 40C190.7 41 238.3 45 286 45.7C333.7 46.3 381.3 43.7 428.8 43.7C476.3 43.7 523.7 46.3 571.2 46.3C618.7 46.3 666.3 43.7 714 42.8C761.7 42 809.3 43 857 41C904.7 39 952.3 34 976.2 31.5L1000 29L1000 0L976.2 0C952.3 0 904.7 0 857 0C809.3 0 761.7 0 714 0C666.3 0 618.7 0 571.2 0C523.7 0 476.3 0 428.8 0C381.3 0 333.7 0 286 0C238.3 0 190.7 0 143 0C95.3 0 47.7 0 23.8 0L0 0Z" fill="#f09f2c"></path><path d="M0 21L23.8 20.8C47.7 20.7 95.3 20.3 143 21.7C190.7 23 238.3 26 286 26.2C333.7 26.3 381.3 23.7 428.8 21.8C476.3 20 523.7 19 571.2 21.7C618.7 24.3 666.3 30.7 714 31C761.7 31.3 809.3 25.7 857 25C904.7 24.3 952.3 28.7 976.2 30.8L1000 33L1000 0L976.2 0C952.3 0 904.7 0 857 0C809.3 0 761.7 0 714 0C666.3 0 618.7 0 571.2 0C523.7 0 476.3 0 428.8 0C381.3 0 333.7 0 286 0C238.3 0 190.7 0 143 0C95.3 0 47.7 0 23.8 0L0 0Z" fill="#f5b220"></path><path d="M0 21L23.8 19.3C47.7 17.7 95.3 14.3 143 13C190.7 11.7 238.3 12.3 286 12.2C333.7 12 381.3 11 428.8 12.3C476.3 13.7 523.7 17.3 571.2 19.5C618.7 21.7 666.3 22.3 714 20.5C761.7 18.7 809.3 14.3 857 12C904.7 9.7 952.3 9.3 976.2 9.2L1000 9L1000 0L976.2 0C952.3 0 904.7 0 857 0C809.3 0 761.7 0 714 0C666.3 0 618.7 0 571.2 0C523.7 0 476.3 0 428.8 0C381.3 0 333.7 0 286 0C238.3 0 190.7 0 143 0C95.3 0 47.7 0 23.8 0L0 0Z" fill="#f7c60f"></path></svg>