<svg id="visual" viewBox="0 0 1000 500" width="1000" height="500" xmlns="http://www.w3.org/2000/svg" xmlns:xlink="http://www.w3.org/1999/xlink" version="1.1"><path d="M0 172L23.8 171.5C47.7 171 95.3 170 143 164C190.7 158 238.3 147 286 145.7C333.7 144.3 381.3 152.7 428.8 162.3C476.3 172 523.7 183 571.2 186.8C618.7 190.7 666.3 187.3 714 185.7C761.7 184 809.3 184 857 177.8C904.7 171.7 952.3 159.3 976.2 153.2L1000 147L1000 0L976.2 0C952.3 0 904.7 0 857 0C809.3 0 761.7 0 714 0C666.3 0 618.7 0 571.2 0C523.7 0 476.3 0 428.8 0C381.3 0 333.7 0 286 0C238.3 0 190.7 0 143 0C95.3 0 47.7 0 23.8 0L0 0Z" fill="#dc7c3e"></path><path d="M0 145L23.8 147.5C47.7 150 95.3 155 143 150.2C190.7 145.3 238.3 130.7 286 132.2C333.7 133.7 381.3 151.3 428.8 159.5C476.3 167.7 523.7 166.3 571.2 163.7C618.7 161 666.3 157 714 151C761.7 145 809.3 137 857 132.7C904.7 128.3 952.3 127.7 976.2 127.3L1000 127L1000 0L976.2 0C952.3 0 904.7 0 857 0C809.3 0 761.7 0 714 0C666.3 0 618.7 0 571.2 0C523.7 0 476.3 0 428.8 0C381.3 0 333.7 0 286 0C238.3 0 190.7 0 143 0C95.3 0 47.7 0 23.8 0L0 0Z" fill="#e88d36"></path><path d="M0 109L23.8 106.5C47.7 104 95.3 99 143 101.5C190.7 104 238.3 114 286 115.7C333.7 117.3 381.3 110.7 428.8 110.7C476.3 110.7 523.7 117.3 571.2 117.3C618.7 117.3 666.3 110.7 714 108.5C761.7 106.3 809.3 108.7 857 103.7C904.7 98.7 952.3 86.3 976.2 80.2L1000 74L1000 0L976.2 0C952.3 0 904.7 0 857 0C809.3 0 761.7 0 714 0C666.3 0 618.7 0 571.2 0C523.7 0 476.3 0 428.8 0C381.3 0 333.7 0 286 0C238.3 0 190.7 0 143 0C95.3 0 47.7 0 23.8 0L0 0Z" fill="#f09f2c"></path><path d="M0 53L23.8 52.8C47.7 52.7 95.3 52.3 143 56C190.7 59.7 238.3 67.3 286 67.7C333.7 68 381.3 61 428.8 56.2C476.3 51.3 523.7 48.7 571.2 55.5C618.7 62.3 666.3 78.7 714 79.7C761.7 80.7 809.3 66.3 857 64.3C904.7 62.3 952.3 72.7 976.2 77.8L1000 83L1000 0L976.2 0C952.3 0 904.7 0 857 0C809.3 0 761.7 0 714 0C666.3 0 618.7 0 571.2 0C523.7 0 476.3 0 428.8 0C381.3 0 333.7 0 286 0C238.3 0 190.7 0 143 0C95.3 0 47.7 0 23.8 0L0 0Z" fill="#f5b220"></path><path d="M0 53L23.8 49C47.7 45 95.3 37 143 33.7C190.7 30.3 238.3 31.7 286 31C333.7 30.3 381.3 27.7 428.8 31.3C476.3 35 523.7 45 571.2 50.5C618.7 56 666.3 57 714 52.3C761.7 47.7 809.3 37.3 857 31.8C904.7 26.3 952.3 25.7 976.2 25.3L1000 25L1000 0L976.2 0C952.3 0 904.7 0 857 0C809.3 0 761.7 0 714 0C666.3 0 618.7 0 571.2 0C523.7 0 476.3 0 428.8 0C381.3 0 333.7 0 286 0C238.3 0 190.7 0 143 0C95.3 0 47.7 0 23.8 0L0 0Z" fill="#f7c60f"></path></svg>