<svg id="visual" viewBox="0 0 1000 300" width="1000" height="300" xmlns="http://www.w3.org/2000/svg" xmlns:xlink="http://www.w3.org/1999/xlink" version="1.1"><path d="M0 102L23.8 101.8C47.7 101.7 95.3 101.3 143 97.8C190.7 94.3 238.3 87.7 286 86.8C333.7 86 381.3 91 428.8 96.8C476.3 102.7 523.7 109.3 571.2 111.7C618.7 114 666.3 112 714 111C761.7 110 809.3 110 857 106.3C904.7 102.7 952.3 95.3 976.2 91.7L1000 88L1000 0L976.2 0C952.3 0 904.7 0 857 0C809.3 0 761.7 0 714 0C666.3 0 618.7 0 571.2 0C523.7 0 476.3 0 428.8 0C381.3 0 333.7 0 286 0C238.3 0 190.7 0 143 0C95.3 0 47.7 0 23.8 0L0 0Z" fill="#dc7c3e"></path><path d="M0 87L23.8 88.3C47.7 89.7 95.3 92.3 143 89.3C190.7 86.3 238.3 77.7 286 78.7C333.7 79.7 381.3 90.3 428.8 95.2C476.3 100 523.7 99 571.2 97.3C618.7 95.7 666.3 93.3 714 89.8C761.7 86.3 809.3 81.7 857 79.2C904.7 76.7 952.3 76.3 976.2 76.2L1000 76L1000 0L976.2 0C952.3 0 904.7 0 857 0C809.3 0 761.7 0 714 0C666.3 0 618.7 0 571.2 0C523.7 0 476.3 0 428.8 0C381.3 0 333.7 0 286 0C238.3 0 190.7 0 143 0C95.3 0 47.7 0 23.8 0L0 0Z" fill="#e88d36"></path><path d="M0 65L23.8 63.5C47.7 62 95.3 59 143 60.5C190.7 62 238.3 68 286 69C333.7 70 381.3 66 428.8 66C476.3 66 523.7 70 571.2 70C618.7 70 666.3 66 714 64.7C761.7 63.3 809.3 64.7 857 61.7C904.7 58.7 952.3 51.3 976.2 47.7L1000 44L1000 0L976.2 0C952.3 0 904.7 0 857 0C809.3 0 761.7 0 714 0C666.3 0 618.7 0 571.2 0C523.7 0 476.3 0 428.8 0C381.3 0 333.7 0 286 0C238.3 0 190.7 0 143 0C95.3 0 47.7 0 23.8 0L0 0Z" fill="#f09f2c"></path><path d="M0 31L23.8 31C47.7 31 95.3 31 143 33.3C190.7 35.7 238.3 40.3 286 40.5C333.7 40.7 381.3 36.3 428.8 33.3C476.3 30.3 523.7 28.7 571.2 32.8C618.7 37 666.3 47 714 47.7C761.7 48.3 809.3 39.7 857 38.3C904.7 37 952.3 43 976.2 46L1000 49L1000 0L976.2 0C952.3 0 904.7 0 857 0C809.3 0 761.7 0 714 0C666.3 0 618.7 0 571.2 0C523.7 0 476.3 0 428.8 0C381.3 0 333.7 0 286 0C238.3 0 190.7 0 143 0C95.3 0 47.7 0 23.8 0L0 0Z" fill="#f5b220"></path><path d="M0 31L23.8 28.7C47.7 26.3 95.3 21.7 143 19.7C190.7 17.7 238.3 18.3 286 18C333.7 17.7 381.3 16.3 428.8 18.7C476.3 21 523.7 27 571.2 30.3C618.7 33.7 666.3 34.3 714 31.5C761.7 28.7 809.3 22.3 857 19C904.7 15.7 952.3 15.3 976.2 15.2L1000 15L1000 0L976.2 0C952.3 0 904.7 0 857 0C809.3 0 761.7 0 714 0C666.3 0 618.7 0 571.2 0C523.7 0 476.3 0 428.8 0C381.3 0 333.7 0 286 0C238.3 0 190.7 0 143 0C95.3 0 47.7 0 23.8 0L0 0Z" fill="#f7c60f"></path></svg>